<svg id="Layer_1" data-name="Layer 1" xmlns="http://www.w3.org/2000/svg" width="700" height="700" viewBox="0 0 700 700"><defs><style>.cls-1{fill:#292f36;}.cls-2{fill:#fff;}</style></defs><title>favicon-hex</title><polygon class="cls-1" points="46.5 524.711 46.5 175.289 349.109 0.577 651.718 175.289 651.718 524.711 349.109 699.423 46.5 524.711"/><path d="M349.109,1.155,651.218,175.577V524.423L349.109,698.845,47,524.423V175.577L349.109,1.155m0-1.155L46,175V525L349.109,700,652.218,525V175L349.109,0Z"/><rect class="cls-2" x="228.833" y="109" width="40.167" height="40.167"/><rect class="cls-2" x="269" y="109" width="40.167" height="40.167"/><rect class="cls-2" x="269" y="149.167" width="40.167" height="40.167"/><rect class="cls-2" x="269" y="189.333" width="40.167" height="40.167"/><rect class="cls-2" x="269" y="229.5" width="40.167" height="40.167"/><rect class="cls-2" x="228.833" y="269.667" width="40.167" height="40.167"/><rect class="cls-2" x="269" y="269.667" width="40.167" height="40.167"/><rect class="cls-2" x="309.167" y="269.667" width="40.167" height="40.167"/><rect class="cls-2" x="349.333" y="229.5" width="40.167" height="40.167"/><rect class="cls-2" x="389.5" y="229.5" width="40.167" height="40.167"/><rect class="cls-2" x="429.667" y="189.333" width="40.167" height="40.167"/><rect class="cls-2" x="188.667" y="309.833" width="40.167" height="40.167"/><rect class="cls-2" x="269" y="309.833" width="40.167" height="40.167"/><rect class="cls-2" x="269" y="350" width="40.167" height="40.167"/><rect class="cls-2" x="309.167" y="350" width="40.167" height="40.167"/><rect class="cls-2" x="349.333" y="309.833" width="40.167" height="40.167"/><rect class="cls-2" x="389.5" y="309.833" width="40.167" height="40.167"/><rect class="cls-2" x="429.667" y="309.833" width="40.167" height="40.167"/><rect class="cls-2" x="269" y="390.167" width="40.167" height="40.167"/><rect class="cls-2" x="269" y="430.333" width="40.167" height="40.167"/><rect class="cls-2" x="269" y="470.5" width="40.167" height="40.167"/><rect class="cls-2" x="269" y="510.667" width="40.167" height="40.167"/><rect class="cls-2" x="309.167" y="510.667" width="40.167" height="40.167"/><rect class="cls-2" x="269" y="550.833" width="40.167" height="40.167"/><rect class="cls-2" x="228.833" y="550.833" width="40.167" height="40.167"/><rect class="cls-2" x="349.333" y="550.833" width="40.167" height="40.167"/><rect class="cls-2" x="389.5" y="550.833" width="40.167" height="40.167"/><rect class="cls-2" x="429.667" y="550.833" width="40.167" height="40.167"/><rect class="cls-2" x="469.833" y="350" width="40.167" height="40.167"/><rect class="cls-2" x="469.833" y="390.167" width="40.167" height="40.167"/><rect class="cls-2" x="469.833" y="430.333" width="40.167" height="40.167"/><rect class="cls-2" x="469.833" y="470.5" width="40.167" height="40.167"/><rect class="cls-2" x="469.833" y="510.667" width="40.167" height="40.167"/></svg>
