<svg xmlns="http://www.w3.org/2000/svg" width="864" height="864" viewBox="0 0 228.6 228.6"><g style="display:inline"><path d="M51.077 93.8c0-16.933 8.466-25.4 25.4-25.4h25.4c16.933 0 25.4 8.467 25.4 25.4v16.933c0 16.934 16.933 33.867 33.866 33.867h16.934c16.933 0 25.4 8.467 25.4 25.4v25.4c0 16.933-8.467 25.4-25.4 25.4h-16.934c-16.933 0-33.866 16.933-33.866 33.867V271.6c0 16.933-8.467 25.4-25.4 25.4h-25.4c-16.934 0-25.4-8.467-25.4-25.4z" style="fill:#005b73;fill-opacity:1;stroke:none;stroke-width:.52916664;stroke-linecap:butt;stroke-linejoin:miter;stroke-miterlimit:4;stroke-dasharray:none;stroke-opacity:1" transform="translate(0 -68.4)"/></g><g style="display:inline"><path d="M51.077 102.267c0-16.934 16.933-33.867 33.866-33.867h8.467c16.933 0 33.867 16.933 33.867 33.867V119.2c0 16.933 8.466 25.4 25.4 25.4h16.933c16.933 0 33.867 16.933 33.867 33.867v8.466c0 16.934-16.934 33.867-33.867 33.867h-16.933c-16.934 0-25.4 8.467-25.4 25.4v16.933c0 16.934-16.934 33.867-33.867 33.867h-8.467c-16.933 0-33.866-16.933-33.866-33.867Z" style="fill:#007f73;fill-opacity:1;stroke:none;stroke-width:.26458332px;stroke-linecap:butt;stroke-linejoin:miter;stroke-opacity:1" transform="translate(0 -68.4)"/></g><g style="display:inline"><path d="M51.077 102.267c0-16.934 16.933-33.867 33.866-33.867h8.467c16.933 0 33.867 16.933 33.867 33.867v8.466c-16.934 25.4 8.466 50.8 33.866 33.867h8.467c16.933 0 33.867 16.933 33.867 33.867v8.466c0 16.934-16.934 33.867-33.867 33.867h-8.467c-25.4-16.933-50.8 8.467-33.866 33.867v8.466c0 16.934-16.934 33.867-33.867 33.867h-8.467c-16.933 0-33.866-16.933-33.866-33.867l-.277-8.466c16.933-33.867 16.933-110.067 0-143.934z" style="fill:#00ba73;fill-opacity:1;stroke:none;stroke-width:.26458332px;stroke-linecap:butt;stroke-linejoin:miter;stroke-opacity:1" transform="translate(0 -68.4)"/></g></svg>