<?xml version="1.0" encoding="UTF-8"?>
<svg width="1202" height="972" viewBox="0 0 1202 972" xmlns="http://www.w3.org/2000/svg">
  <defs>
  <style>
     .Vertex { fill : blue; stroke : none; } 
     .Triangle { fill : none; stroke : turquoise; stroke-width : 1px; } 
     .Polygon { fill : none; stroke : green; stroke-width : 2px; } 
     .BezierPath { fill : none; stroke : blue; stroke-width : 2px; } 
     .VEllipse { fill : none; stroke : black; stroke-width : 1px; } 
     .Line { fill : none; stroke : purple; stroke-width : 1px; } 
     .Circle { fill : none; stroke : purple; stroke-width : 1px; } 
     .CircleSector { fill : none; stroke : purple; stroke-width : 1px; } 
  </style>
  </defs>
  <g class="main-g" transform="scale(1,1) translate(601,486)">
    
    <line class="Line" x1="-216" y1="-216" x2="-152.73506473629428" y2="-152.73506473629428" />
    <line class="Line" x1="-216" y1="216" x2="-152.73506473629428" y2="152.73506473629428" />
    <line class="Line" x1="216" y1="-216" x2="152.73506473629428" y2="-152.73506473629428" />
    <line class="Line" x1="216" y1="216" x2="152.73506473629428" y2="152.73506473629428" />
    <g class="Vector">   <line x1="-345.6" y1="0" x2="-267.2" y2="0" />   <polygon points="-267.2,0 -269.1778989511219,4.13298106954297 -259.2,0 -269.1778989511219,-4.13298106954297"/></g>
    <g class="Vector">   <line x1="345.6" y1="0" x2="267.2" y2="-9.797174393178826e-16" />   <polygon points="267.2,-9.797174393178826e-16 269.1778989511219,-4.132981069542971 259.2,0 269.1778989511219,4.132981069542969"/></g>
    <g class="Vector">   <line x1="0" y1="-345.6" x2="-4.898587196589413e-16" y2="-267.2" />   <polygon points="-4.898587196589413e-16,-267.2 -4.1329810695429705,-269.1778989511219 0,-259.2 4.13298106954297,-269.1778989511219"/></g>
    <g class="Vector">   <line x1="0" y1="345.6" x2="-4.898587196589413e-16" y2="267.2" />   <polygon points="-4.898587196589413e-16,267.2 4.13298106954297,269.1778989511219 0,259.2 -4.1329810695429705,269.1778989511219"/></g>
    <path class="Polygon" d="M 90.925305317525 58.28026126326867 L -5.009534134422366 107.88375488346733 L -95.93483945194674 49.60349362019978 L -90.92530531752577 -58.280261263267555 L 5.009534134421757 -107.88375488346736 L 95.93483945194733 -49.603493620198634 Z" />
    <ellipse class="VEllipse" cx="0" cy="0" rx="108" ry="108" />
    <circle class="Circle" cx="0" cy="0" r="216" />
    <path  class="CircleSector" d="M 375.77360608975624 -73.87635095834445 A 216 216 0 0 1 375.77360608975624 73.87635095834445" />
    <path  class="CircleSector" d="M 91.28554453599108 368.5624819999164 A 216 216 0 0 1 -91.28554453599105 368.56248199991643" />
    <path  class="CircleSector" d="M -375.7736060897562 73.87635095834447 A 216 216 0 0 1 -375.77360608975624 -73.87635095834443" />
    <path  class="CircleSector" d="M -91.28554453599102 -368.56248199991643 A 216 216 0 0 1 91.28554453599112 -368.5624819999164" />
    <path class="BezierPath" d="M 0 -216 C 108 -216 108 0 216 0 M 216 0 C 216 108 0 108 0 216 M 0 216 C -108 216 -108 0 -216 0 M -216 0 C -216 -108 0 -108 0 -216" />
    <path class="Triangle" d="M -229.10259710444143 -313.2 L -313.2 -229.10259710444143 L -345.6 -345.6 Z" />
    <path class="Triangle" d="M 313.2 -229.10259710444143 L 229.10259710444143 -313.2 L 345.6 -345.6 Z" />
    <path class="Triangle" d="M -313.2 229.10259710444143 L -229.10259710444143 313.2 L -345.6 345.6 Z" />
    <path class="Triangle" d="M 229.10259710444143 313.2 L 313.2 229.10259710444143 L 345.6 345.6 Z" />
    <path class="BezierPath" d="M 244.37610357807085 -244.37610357807083 C 325.02021775883424 -163.73198939730747 325.02021775883424 163.73198939730747 244.37610357807085 244.37610357807083 M 244.37610357807085 244.37610357807083 C 163.73198939730747 325.02021775883424 -163.7319893973075 325.0202177588342 -244.37610357807083 244.37610357807085 M -244.37610357807083 244.37610357807085 C -325.02021775883424 163.73198939730742 -325.0202177588342 -163.73198939730747 -244.37610357807088 -244.37610357807083 M -244.37610357807088 -244.37610357807083 C -163.7319893973075 -325.0202177588342 163.73198939730742 -325.0202177588343 244.37610357807085 -244.37610357807083" />
  </g>
</svg>
