<svg xmlns="http://www.w3.org/2000/svg" width="1505.1" height="1505" viewBox="0 0 398.2 398.2"><path d="M113 123a64 64 0 1 0 1 129 64 64 0 0 0-1-129zm0 140a76 76 0 1 1 1-152 76 76 0 0 1-1 152zm188-35zM77 370c30 9 58 3 67 0l10-38h-1c0-3 1-7 4-8 6-1 11-3 16-6l5 1 39 23c28-14 43-39 47-47l-19-33-1-1c-3-1-4-5-3-8l7-15 4-4 44-10c9-30 3-58 0-67l-38-10c-3 1-7 0-8-3-1-6-3-11-6-16l1-6 23-38c-14-28-39-43-47-47l-33 19-1 1c-1 3-5 4-8 3l-15-7-4-4-10-44C120-5 92 2 83 5L73 42v1c1 3 0 6-3 7l-16 6h-6L10 33c-28 14-43 39-47 47l19 33 1 1c3 1 4 5 3 7l-7 16c-1 2-2 3-4 3l-44 11c-10 30-3 58 0 67l37 10 1-1c3 0 6 1 7 4l6 16v5l-23 39c14 28 39 43 47 47l33-19 1-1c1-3 5-4 7-3l16 7c2 1 3 2 3 4zm33 16c-12 0-26-1-40-6-1-1-3-2-3-4l-11-44-9-4-38 22H4c-2-1-38-18-57-57v-5l24-39-4-10-42-11c-2 0-4-1-4-3-1-2-14-40 0-81 0-1 2-3 4-3l44-11 4-9-22-38v-5c0-2 18-38 57-57h5l39 24 9-4L72-1c1-2 2-4 4-4 2-1 39-14 80 0 2 0 4 2 4 4l11 44 9 4 38-22h5c2 0 38 18 57 57v5l-24 39 4 9 42 11 4 4c1 2 14 39 0 80-1 2-2 4-4 4l-44 11-4 9 22 38v5c-1 2-18 38-57 57h-5l-39-24-10 4-11 42c0 2-1 3-3 4-1 0-18 6-41 6" style="fill:#0088ff;fill-opacity:1;fill-rule:nonzero;stroke:none;stroke-width:.03651815" transform="translate(86 12)"/></svg>