<svg xmlns="http://www.w3.org/2000/svg" width="1461" height="1461" viewBox="0 0 386.6 386.6"><path d="M100 351a70 70 0 1 1 0-140 70 70 0 0 1 0 140zm187-29c14-39 0-76 0-76l-45-12v2c-1-6-4-11-6-17l25-41c-18-38-54-54-54-54l-40 23 1 1-16-7-11-47c-40-14-77 0-77 0l-11 45h1c-5 1-11 3-16 6l-42-25c-37 18-54 54-54 54l24 40 1-1-7 16-47 11c-14 40 0 77 0 77l45 11-1-1 7 16-26 41c19 38 54 55 54 55l41-24-2-1 16 7 12 47c39 14 76 0 76 0l12-45-2 1 17-7 41 26c38-19 54-55 54-55l-23-40-1 2 7-16 47-12" style="fill:#b900ff;fill-opacity:1;fill-rule:nonzero;stroke:none;stroke-width:.07542636" transform="translate(93 -88)"/></svg>