<?xml version="1.0" encoding="utf-8"?>
<!-- Generator: Adobe Illustrator 19.0.0, SVG Export Plug-In . SVG Version: 6.00 Build 0)  -->
<svg version="1.1" id="Layer_1" xmlns="http://www.w3.org/2000/svg" xmlns:xlink="http://www.w3.org/1999/xlink" x="0px" y="0px"
	 viewBox="0 0 512 512" style="enable-background:new 0 0 512 512;" xml:space="preserve">
<g id="XMLID_1_">
	<path id="XMLID_7_" fill="#b900ff" d="M375.7,257.2c0,37-15,71.7-40.2,96.9l-22.8-22.8c18.9-18.9,30.7-44.9,30.7-74c0-29.1-11.8-55.1-30.7-74
		l22.8-22.8C360,184.7,375.7,219.4,375.7,257.2z M229.2,61.1L102.4,187.9H33.9C15,187.9,0,202.8,0,221.7v68.5
		c0,18.9,15,33.9,33.9,33.9h68.5L229.2,451c15.8,15.8,43.3,4.7,43.3-18.1V78.4C273.3,56.3,245.8,45.3,229.2,61.1z M432.4,64.2
		l-22.8,22.8c43.3,43.3,70.1,103.2,70.1,169.4s-26.8,126-70.1,170.1l22.8,22.8c49.6-49.6,79.6-117.4,79.6-193
		S481.3,112.3,432.4,64.2L432.4,64.2z M384.4,112.3l-23.6,22.8c31.5,31.5,50.4,74.8,50.4,122.1s-18.9,90.6-50.4,121.3l23.6,22.8
		c37-37,59.9-88.2,59.9-144.1C443.5,200.5,420.6,149.3,384.4,112.3z"/>
</g>
</svg>
