solid pixel
 facet normal -0.2855259333233383 -0.0927537251110703 0.39983957767816897
  outer loop
   vertex -0.014165701577454115 25 80.1614725268949 
   vertex -14.18500038749486 25 70.04206207942778 
   vertex -11.478325134293677 16.669710041074005 70.04246362278838 
  endloop 
 endfacet 
 facet normal -0.277727862839144 -0.10611428353106943 0.40200372266123285
  outer loop
   vertex -11.478325134293677 16.669710041074005 70.04246362278838 
   vertex -0.0141657015774514 24.999999999999993 80.1614725268949 
   vertex -0.014165701577454115 25 80.1614725268949 
  endloop 
 endfacet 
 facet normal -0.2855259333233383 0.09275372511107041 0.399839577678169
  outer loop
   vertex -0.0141657015774514 25.000000000000007 80.1614725268949 
   vertex -11.478325134293671 33.330289958926 70.04246362278838 
   vertex -14.18500038749486 25 70.04206207942778 
  endloop 
 endfacet 
 facet normal -0.2836609249238561 0.10838118835591669 0.3972278913695535
  outer loop
   vertex -14.18500038749486 25 70.04206207942778 
   vertex -0.014165701577454115 25 80.1614725268949 
   vertex -0.0141657015774514 25.000000000000007 80.1614725268949 
  endloop 
 endfacet 
 facet normal -0.17648739109227718 0.24283240492394684 0.3998557538716854
  outer loop
   vertex -0.014165701577444295 25.000000000000014 80.1614725268949 
   vertex -4.392157324904739 38.478692289684226 70.04351487695438 
   vertex -11.478325134293671 33.330289958926 70.04246362278838 
  endloop 
 endfacet 
 facet normal -0.20713959139300123 0.20713959139300123 0.40519918479074085
  outer loop
   vertex -11.478325134293671 33.330289958926 70.04246362278838 
   vertex -0.0141657015774514 25.000000000000007 80.1614725268949 
   vertex -0.014165701577444295 25.000000000000014 80.1614725268949 
  endloop 
 endfacet 
 facet normal -0.00005932367867996312 0.3001573596257528 0.39988192750260376
  outer loop
   vertex -0.014165701577435514 25.000000000000014 80.1614725268949 
   vertex 4.366827787470758 38.478692289684226 70.04481429856519 
   vertex -4.392157324904739 38.478692289684226 70.04351487695438 
  endloop 
 endfacet 
 facet normal 0 0.30016968607996286 0.3998726791850833
  outer loop
   vertex -4.392157324904739 38.478692289684226 70.04351487695438 
   vertex -0.014165701577444295 25.000000000000014 80.1614725268949 
   vertex -0.014165701577435514 25.000000000000014 80.1614725268949 
  endloop 
 endfacet 
 facet normal 0.17636874373491765 0.2428324049239466 0.39990810113352215
  outer loop
   vertex -0.014165701577428408 25.000000000000007 80.1614725268949 
   vertex 11.452995596859688 33.330289958925995 70.04586555273119 
   vertex 4.366827787470758 38.478692289684226 70.04481429856519 
  endloop 
 endfacet 
 facet normal 0.22104545235933618 0.22104545235933618 0.3902279026191143
  outer loop
   vertex 4.366827787470758 38.478692289684226 70.04481429856519 
   vertex -0.014165701577435514 25.000000000000014 80.1614725268949 
   vertex -0.014165701577428408 25.000000000000007 80.1614725268949 
  endloop 
 endfacet 
 facet normal 0.28540728596597864 0.09275372511107019 0.3999242773270386
  outer loop
   vertex -0.014165701577425693 25 80.1614725268949 
   vertex 14.159670850060873 25 70.04626709609178 
   vertex 11.452995596859688 33.330289958925995 70.04586555273119 
  endloop 
 endfacet 
 facet normal 0.27763070351891145 0.10607716089040439 0.4020806242546705
  outer loop
   vertex 11.452995596859688 33.330289958925995 70.04586555273119 
   vertex -0.014165701577428408 25.000000000000007 80.1614725268949 
   vertex -0.014165701577425693 25 80.1614725268949 
  endloop 
 endfacet 
 facet normal 0.2854072859659786 -0.09275372511107023 0.3999242773270386
  outer loop
   vertex -0.014165701577428408 24.999999999999993 80.1614725268949 
   vertex 11.452995596859685 16.669710041073998 70.04586555273119 
   vertex 14.159670850060873 25 70.04626709609178 
  endloop 
 endfacet 
 facet normal 0.283548587604748 -0.10833826650425551 0.3973197937155981
  outer loop
   vertex 14.159670850060873 25 70.04626709609178 
   vertex -0.014165701577425693 25 80.1614725268949 
   vertex -0.014165701577428408 24.999999999999993 80.1614725268949 
  endloop 
 endfacet 
 facet normal 0.17636874373491757 -0.24283240492394667 0.39990810113352215
  outer loop
   vertex -0.014165701577435514 24.999999999999986 80.1614725268949 
   vertex 4.366827787470754 11.52130771031577 70.04481429856519 
   vertex 11.452995596859685 16.669710041073998 70.04586555273119 
  endloop 
 endfacet 
 facet normal 0.20707321948128643 -0.20707321948128643 0.40526702746128995
  outer loop
   vertex 11.452995596859685 16.669710041073998 70.04586555273119 
   vertex -0.014165701577428408 24.999999999999993 80.1614725268949 
   vertex -0.014165701577435514 24.999999999999986 80.1614725268949 
  endloop 
 endfacet 
 facet normal -0.000059323678679963134 -0.30015735962575274 0.39988192750260376
  outer loop
   vertex -0.014165701577444295 24.999999999999986 80.1614725268949 
   vertex -4.39215732490474 11.52130771031577 70.04351487695438 
   vertex 4.366827787470754 11.52130771031577 70.04481429856519 
  endloop 
 endfacet 
 facet normal 0 -0.30014502809019195 0.3998911878408149
  outer loop
   vertex 4.366827787470754 11.52130771031577 70.04481429856519 
   vertex -0.014165701577435514 24.999999999999986 80.1614725268949 
   vertex -0.014165701577444295 24.999999999999986 80.1614725268949 
  endloop 
 endfacet 
 facet normal -0.17648739109227732 -0.2428324049239467 0.3998557538716855
  outer loop
   vertex -0.0141657015774514 24.999999999999993 80.1614725268949 
   vertex -11.478325134293677 16.669710041074005 70.04246362278838 
   vertex -4.39215732490474 11.52130771031577 70.04351487695438 
  endloop 
 endfacet 
 facet normal -0.22108537653829016 -0.22108537653829016 0.39018266563475734
  outer loop
   vertex -4.39215732490474 11.52130771031577 70.04351487695438 
   vertex -0.014165701577444295 24.999999999999986 80.1614725268949 
   vertex -0.0141657015774514 24.999999999999993 80.1614725268949 
  endloop 
 endfacet 
 facet normal -0.4629042956556879 -0.1504017818910614 0.11445050051225211
  outer loop
   vertex -14.18500038749486 25 70.04206207942778 
   vertex -19.641323813065007 25.000000000000004 47.9735211741585 
   vertex -15.891998743599176 13.46076385637481 47.97401923054156 
  endloop 
 endfacet 
 facet normal -0.46290452037255303 -0.15040127766563074 0.1144502542382607
  outer loop
   vertex -15.891998743599176 13.46076385637481 47.97401923054156 
   vertex -11.478325134293677 16.669710041074005 70.04246362278838 
   vertex -14.18500038749486 25 70.04206207942778 
  endloop 
 endfacet 
 facet normal -0.4629043418294449 0.1504017969027365 0.11445029403141116
  outer loop
   vertex -11.478325134293671 33.330289958926 70.04246362278838 
   vertex -15.89199874359918 36.53923614362519 47.97401923054156 
   vertex -19.641323813065007 25.000000000000004 47.9735211741585 
  endloop 
 endfacet 
 facet normal -0.4629044564124318 0.15040125686994102 0.11445054025845883
  outer loop
   vertex -19.641323813065007 25.000000000000004 47.9735211741585 
   vertex -14.18500038749486 25 70.04206207942778 
   vertex -11.478325134293671 33.330289958926 70.04246362278838 
  endloop 
 endfacet 
 facet normal -0.2860963650302424 0.3937569307272935 0.11447423037829835
  outer loop
   vertex -4.392157324904739 38.478692289684226 70.04351487695438 
   vertex -6.0761382768655805 43.670876284596815 47.97532315908074 
   vertex -15.89199874359918 36.53923614362519 47.97401923054156 
  endloop 
 endfacet 
 facet normal -0.2860974387571458 0.3937559631983574 0.11447487489547657
  outer loop
   vertex -15.89199874359918 36.53923614362519 47.97401923054156 
   vertex -11.478325134293671 33.330289958926 70.04246362278838 
   vertex -4.392157324904739 38.478692289684226 70.04351487695438 
  endloop 
 endfacet 
 facet normal -0.000015211808137464519 0.48671011334173464 0.11451316666426055
  outer loop
   vertex 4.366827787470758 38.478692289684226 70.04481429856519 
   vertex 6.05693251766996 43.670876284596815 47.97693490339295 
   vertex -6.0761382768655805 43.670876284596815 47.97532315908074 
  endloop 
 endfacet 
 facet normal -0.000016988488584608153 0.486709925860148 0.11451396325601756
  outer loop
   vertex -6.0761382768655805 43.670876284596815 47.97532315908074 
   vertex -4.392157324904739 38.478692289684226 70.04351487695438 
   vertex 4.366827787470758 38.478692289684226 70.04481429856519 
  endloop 
 endfacet 
 facet normal 0.2860656655345927 0.3937565510352394 0.11455223052862575
  outer loop
   vertex 11.452995596859688 33.330289958925995 70.04586555273119 
   vertex 15.872792984403555 36.53923614362519 47.97823883193213 
   vertex 6.05693251766996 43.670876284596815 47.97693490339295 
  endloop 
 endfacet 
 facet normal 0.2860644135271112 0.39375727312982767 0.11455287499994139
  outer loop
   vertex 6.05693251766996 43.670876284596815 47.97693490339295 
   vertex 4.366827787470758 38.478692289684226 70.04481429856519 
   vertex 11.452995596859688 33.330289958925995 70.04586555273119 
  endloop 
 endfacet 
 facet normal 0.46287319593560833 0.15040156224045667 0.11457650090653818
  outer loop
   vertex 14.159670850060873 25 70.04626709609178 
   vertex 19.622118053869386 25 47.97873688831519 
   vertex 15.872792984403555 36.53923614362519 47.97823883193213 
  endloop 
 endfacet 
 facet normal 0.46287297115999554 0.15040206644956658 0.11457674710523985
  outer loop
   vertex 15.872792984403555 36.53923614362519 47.97823883193213 
   vertex 11.452995596859688 33.330289958925995 70.04586555273119 
   vertex 14.159670850060873 25 70.04626709609178 
  endloop 
 endfacet 
 facet normal 0.46287314970819493 -0.1504015472291709 0.11457670736361046
  outer loop
   vertex 11.452995596859685 16.669710041073998 70.04586555273119 
   vertex 15.872792984403551 13.460763856374808 47.97823883193213 
   vertex 19.622118053869386 25 47.97873688831519 
  endloop 
 endfacet 
 facet normal 0.4628730351952898 -0.15040208724210938 0.1145764611179667
  outer loop
   vertex 19.622118053869386 25 47.97873688831519 
   vertex 14.159670850060873 25 70.04626709609178 
   vertex 11.452995596859685 16.669710041073998 70.04586555273119 
  endloop 
 endfacet 
 facet normal 0.28606559070926935 -0.393756448145846 0.11455277105214237
  outer loop
   vertex 4.366827787470754 11.52130771031577 70.04481429856519 
   vertex 6.056932517669959 6.329123715403185 47.97693490339295 
   vertex 15.872792984403551 13.460763856374808 47.97823883193213 
  endloop 
 endfacet 
 facet normal 0.2860645171838162 -0.3937574156481554 0.1145521262590786
  outer loop
   vertex 15.872792984403551 13.460763856374808 47.97823883193213 
   vertex 11.452995596859685 16.669710041073998 70.04586555273119 
   vertex 4.366827787470754 11.52130771031577 70.04481429856519 
  endloop 
 endfacet 
 facet normal -0.000015211896893340802 -0.4867099561394702 0.11451383481183908
  outer loop
   vertex -4.39215732490474 11.52130771031577 70.04351487695438 
   vertex -6.076138276865576 6.329123715403181 47.97532315908074 
   vertex 6.056932517669959 6.329123715403185 47.97693490339295 
  endloop 
 endfacet 
 facet normal -0.00001698835127983418 -0.4867101436189608 0.11451303772848967
  outer loop
   vertex 6.056932517669959 6.329123715403185 47.97693490339295 
   vertex 4.366827787470754 11.52130771031577 70.04481429856519 
   vertex -4.39215732490474 11.52130771031577 70.04351487695438 
  endloop 
 endfacet 
 facet normal -0.28609629034733164 -0.3937568278362513 0.11447477094027352
  outer loop
   vertex -11.478325134293677 16.669710041074005 70.04246362278838 
   vertex -15.891998743599176 13.46076385637481 47.97401923054156 
   vertex -6.076138276865576 6.329123715403181 47.97532315908074 
  endloop 
 endfacet 
 facet normal -0.2860975422013734 -0.39375610573001624 0.11447412610134047
  outer loop
   vertex -6.076138276865576 6.329123715403181 47.97532315908074 
   vertex -4.39215732490474 11.52130771031577 70.04351487695438 
   vertex -11.478325134293677 16.669710041074005 70.04246362278838 
  endloop 
 endfacet 
 facet normal -0.47445786597174744 -0.15415942622734358 0.03353512670009735
  outer loop
   vertex -19.641323813065007 25.000000000000004 47.9735211741585 
   vertex -21.02000016506811 25.000000000000004 28.467889193492454 
   vertex -17.006922405883113 12.649016562145688 28.46836002751354 
  endloop 
 endfacet 
 facet normal -0.47445792233936324 -0.15415927520331524 0.033535023456131116
  outer loop
   vertex -17.006922405883113 12.649016562145688 28.46836002751354 
   vertex -15.891998743599176 13.46076385637481 47.97401923054156 
   vertex -19.641323813065007 25.000000000000004 47.9735211741585 
  endloop 
 endfacet 
 facet normal -0.4744578723465236 0.15415942830243573 0.033535026969962446
  outer loop
   vertex -15.89199874359918 36.53923614362519 47.97401923054156 
   vertex -17.006922405883113 37.35098343785432 28.46836002751354 
   vertex -21.02000016506811 25.000000000000004 28.467889193492454 
  endloop 
 endfacet 
 facet normal -0.47445791551630073 0.1541592729817605 0.03353513020195281
  outer loop
   vertex -21.02000016506811 25.000000000000004 28.467889193492454 
   vertex -19.641323813065007 25.000000000000004 47.9735211741585 
   vertex -15.89199874359918 36.53923614362519 47.97401923054156 
  endloop 
 endfacet 
 facet normal -0.29323258429909954 0.40359460589355595 0.0335566029105557
  outer loop
   vertex -6.0761382768655805 43.670876284596815 47.97532315908074 
   vertex -6.500548432840513 44.98431099693531 28.469592686983805 
   vertex -17.006922405883113 37.35098343785432 28.46836002751354 
  endloop 
 endfacet 
 facet normal -0.293232914744972 0.40359434333902316 0.033556873139651694
  outer loop
   vertex -17.006922405883113 37.35098343785432 28.46836002751354 
   vertex -15.89199874359918 36.53923614362519 47.97401923054156 
   vertex -6.0761382768655805 43.670876284596815 47.97532315908074 
  endloop 
 endfacet 
 facet normal -0.000003941133289260247 0.49887032734229964 0.03359161326662101
  outer loop
   vertex 6.05693251766996 43.670876284596815 47.97693490339295 
   vertex 6.486043994874671 44.98431099693531 28.47111633788216 
   vertex -6.500548432840513 44.98431099693531 28.469592686983805 
  endloop 
 endfacet 
 facet normal -0.000004462318801390571 0.4988703048485441 0.0335919472553822
  outer loop
   vertex -6.500548432840513 44.98431099693531 28.469592686983805 
   vertex -6.0761382768655805 43.670876284596815 47.97532315908074 
   vertex 6.05693251766996 43.670876284596815 47.97693490339295 
  endloop 
 endfacet 
 facet normal 0.293224651510237 0.40359453636555354 0.03362668527485257
  outer loop
   vertex 15.872792984403555 36.53923614362519 47.97823883193213 
   vertex 16.992417967917266 37.35098343785431 28.472348997352427 
   vertex 6.486043994874671 44.98431099693531 28.47111633788216 
  endloop 
 endfacet 
 facet normal 0.29322429970479935 0.4035947694512757 0.033626955470300875
  outer loop
   vertex 6.486043994874671 44.98431099693531 28.47111633788216 
   vertex 6.05693251766996 43.670876284596815 47.97693490339295 
   vertex 15.872792984403555 36.53923614362519 47.97823883193213 
  endloop 
 endfacet 
 facet normal 0.4744498578043011 0.15415938533197648 0.03364842260115157
  outer loop
   vertex 19.622118053869386 25 47.97873688831519 
   vertex 21.005495727102264 25 28.472819831373513 
   vertex 16.992417967917266 37.35098343785431 28.472348997352427 
  endloop 
 endfacet 
 facet normal 0.4744498014209431 0.15415953633260437 0.03364852581234508
  outer loop
   vertex 16.992417967917266 37.35098343785431 28.472348997352427 
   vertex 15.872792984403555 36.53923614362519 47.97823883193213 
   vertex 19.622118053869386 25 47.97873688831519 
  endloop 
 endfacet 
 facet normal 0.4744498514069219 -0.1541593832571431 0.03364852231119539
  outer loop
   vertex 15.872792984403551 13.460763856374808 47.97823883193213 
   vertex 16.992417967917262 12.64901656214568 28.472348997352427 
   vertex 21.005495727102264 25 28.472819831373513 
  endloop 
 endfacet 
 facet normal 0.474449808268515 -0.15415953855290898 0.03364841908802781
  outer loop
   vertex 21.005495727102264 25 28.472819831373513 
   vertex 19.622118053869386 25 47.97873688831519 
   vertex 15.872792984403551 13.460763856374808 47.97823883193213 
  endloop 
 endfacet 
 facet normal 0.29322464114711405 -0.4035945221440952 0.03362694632918126
  outer loop
   vertex 6.056932517669959 6.329123715403185 47.97693490339295 
   vertex 6.486043994874671 5.015689003064697 28.47111633788216 
   vertex 16.992417967917262 12.64901656214568 28.472348997352427 
  endloop 
 endfacet 
 facet normal 0.29322431079977085 -0.4035947846711057 0.033626676051659504
  outer loop
   vertex 16.992417967917262 12.64901656214568 28.472348997352427 
   vertex 15.872792984403551 13.460763856374808 47.97823883193213 
   vertex 6.056932517669959 6.329123715403185 47.97693490339295 
  endloop 
 endfacet 
 facet normal -0.000003941171150263675 -0.49887030561300727 0.03359193596760761
  outer loop
   vertex -6.076138276865576 6.329123715403181 47.97532315908074 
   vertex -6.500548432840529 5.015689003064701 28.469592686983805 
   vertex 6.486043994874671 5.015689003064697 28.47111633788216 
  endloop 
 endfacet 
 facet normal -0.000004462272918415661 -0.49887032810642074 0.033591601853443245
  outer loop
   vertex 6.486043994874671 5.015689003064697 28.47111633788216 
   vertex 6.056932517669959 6.329123715403185 47.97693490339295 
   vertex -6.076138276865576 6.329123715403181 47.97532315908074 
  endloop 
 endfacet 
 facet normal -0.293232573996441 -0.4035945916710013 0.03355686399739258
  outer loop
   vertex -15.891998743599176 13.46076385637481 47.97401923054156 
   vertex -17.006922405883113 12.649016562145688 28.46836002751354 
   vertex -6.500548432840529 5.015689003064701 28.469592686983805 
  endloop 
 endfacet 
 facet normal -0.2932329257695514 -0.40359435856414916 0.033556593686215226
  outer loop
   vertex -6.500548432840529 5.015689003064701 28.469592686983805 
   vertex -6.076138276865576 6.329123715403181 47.97532315908074 
   vertex -15.891998743599176 13.46076385637481 47.97401923054156 
  endloop 
 endfacet 
 facet normal -0.47546643832614466 -0.1544886764368815 -0.008056976990844905
  outer loop
   vertex -21.02000016506811 25.000000000000004 28.467889193492454 
   vertex -20.69619581397443 25.000000000000004 9.35922080534107 
   vertex -16.74458075666975 12.838179329848163 9.35962312271754 
  endloop 
 endfacet 
 facet normal -0.47546642686411306 -0.15448871306281242 -0.008056951114975555
  outer loop
   vertex -16.74458075666975 12.838179329848163 9.35962312271754 
   vertex -17.006922405883113 12.649016562145688 28.46836002751354 
   vertex -21.02000016506811 25.000000000000004 28.467889193492454 
  endloop 
 endfacet 
 facet normal -0.47546643872604555 0.15448867656595452 -0.008056950916533913
  outer loop
   vertex -17.006922405883113 37.35098343785432 28.46836002751354 
   vertex -16.744580756669755 37.16182067015184 9.35962312271754 
   vertex -20.69619581397443 25.000000000000004 9.35922080534107 
  endloop 
 endfacet 
 facet normal -0.4754664264702988 0.1544887129358332 -0.008056976789942655
  outer loop
   vertex -20.69619581397443 25.000000000000004 9.35922080534107 
   vertex -21.02000016506811 25.000000000000004 28.467889193492454 
   vertex -17.006922405883113 37.35098343785432 28.46836002751354 
  endloop 
 endfacet 
 facet normal -0.29385411210541945 0.4044566114390685 -0.008038050880777067
  outer loop
   vertex -6.500548432840513 44.98431099693531 28.469592686983805 
   vertex -6.399118226190255 44.67823920938669 9.360676403283405 
   vertex -16.744580756669755 37.16182067015184 9.35962312271754 
  endloop 
 endfacet 
 facet normal -0.2938540301679083 0.40445666962371624 -0.008038118621301374
  outer loop
   vertex -16.744580756669755 37.16182067015184 9.35962312271754 
   vertex -17.006922405883113 37.35098343785432 28.46836002751354 
   vertex -6.500548432840513 44.98431099693531 28.469592686983805 
  endloop 
 endfacet 
 facet normal 8.152501563107314e-7 0.4999358758948331 -0.008007496025681798
  outer loop
   vertex 6.486043994874671 44.98431099693531 28.47111633788216 
   vertex 6.3885767201593975 44.67823920938669 9.361978329662191 
   vertex -6.399118226190255 44.67823920938669 9.360676403283405 
  endloop 
 endfacet 
 facet normal 9.394886442041638e-7 0.49993587455324495 -0.008007579771658016
  outer loop
   vertex -6.399118226190255 44.67823920938669 9.360676403283405 
   vertex -6.500548432840513 44.98431099693531 28.469592686983805 
   vertex 6.486043994874671 44.98431099693531 28.47111633788216 
  endloop 
 endfacet 
 facet normal 0.2938557544544008 0.4044566277451069 -0.007976957257687272
  outer loop
   vertex 16.992417967917266 37.35098343785431 28.472348997352427 
   vertex 16.734039250638894 37.16182067015183 9.363031610228056 
   vertex 6.3885767201593975 44.67823920938669 9.361978329662191 
  endloop 
 endfacet 
 facet normal 0.2938558351495047 0.40445656777995087 -0.007977025024981252
  outer loop
   vertex 6.3885767201593975 44.67823920938669 9.361978329662191 
   vertex 6.486043994874671 44.98431099693531 28.47111633788216 
   vertex 16.992417967917266 37.35098343785431 28.472348997352427 
  endloop 
 endfacet 
 facet normal 0.4754681002480931 0.15448868664360071 -0.007958099371369388
  outer loop
   vertex 21.005495727102264 25 28.472819831373513 
   vertex 20.68565430794357 25 9.363433927604525 
   vertex 16.734039250638894 37.16182067015183 9.363031610228056 
  endloop 
 endfacet 
 facet normal 0.47546811172319214 0.15448864999315376 -0.007958125261324002
  outer loop
   vertex 16.734039250638894 37.16182067015183 9.363031610228056 
   vertex 16.992417967917266 37.35098343785431 28.472348997352427 
   vertex 21.005495727102264 25 28.472819831373513 
  endloop 
 endfacet 
 facet normal 0.4754680998533515 -0.15448868651447833 -0.00795812546235478
  outer loop
   vertex 16.992417967917262 12.64901656214568 28.472348997352427 
   vertex 16.73403925063889 12.83817932984816 9.363031610228056 
   vertex 20.68565430794357 25 9.363433927604525 
  endloop 
 endfacet 
 facet normal 0.47546811211184997 -0.15448865012041574 -0.007958099569937822
  outer loop
   vertex 20.68565430794357 25 9.363433927604525 
   vertex 21.005495727102264 25 28.472819831373513 
   vertex 16.992417967917262 12.64901656214568 28.472348997352427 
  endloop 
 endfacet 
 facet normal 0.2938557538183977 -0.40445662686015327 -0.007977025556436954
  outer loop
   vertex 6.486043994874671 5.015689003064697 28.47111633788216 
   vertex 6.3885767201593975 5.321760790613311 9.361978329662191 
   vertex 16.73403925063889 12.83817932984816 9.363031610228056 
  endloop 
 endfacet 
 facet normal 0.29385583577508373 -0.40445656865184737 -0.007976957772268183
  outer loop
   vertex 16.73403925063889 12.83817932984816 9.363031610228056 
   vertex 16.992417967917262 12.64901656214568 28.472348997352427 
   vertex 6.486043994874671 5.015689003064697 28.47111633788216 
  endloop 
 endfacet 
 facet normal 8.152587498190258e-7 -0.4999358745429037 -0.008007580430904892
  outer loop
   vertex -6.500548432840529 5.015689003064701 28.469592686983805 
   vertex -6.39911822619025 5.3217607906133075 9.360676403283405 
   vertex 6.3885767201593975 5.321760790613311 9.361978329662191 
  endloop 
 endfacet 
 facet normal 9.394788928993567e-7 -0.49993587588446886 -0.008007496659151627
  outer loop
   vertex 6.3885767201593975 5.321760790613311 9.361978329662191 
   vertex 6.486043994874671 5.015689003064697 28.47111633788216 
   vertex -6.500548432840529 5.015689003064701 28.469592686983805 
  endloop 
 endfacet 
 facet normal -0.293854111455664 -0.40445661055432347 -0.008038119152547077
  outer loop
   vertex -17.006922405883113 12.649016562145688 28.46836002751354 
   vertex -16.74458075666975 12.838179329848163 9.35962312271754 
   vertex -6.39911822619025 5.3217607906133075 9.360676403283405 
  endloop 
 endfacet 
 facet normal -0.29385403080839534 -0.40445667049441464 -0.008038051395154906
  outer loop
   vertex -6.39911822619025 5.3217607906133075 9.360676403283405 
   vertex -6.500548432840529 5.015689003064701 28.469592686983805 
   vertex -17.006922405883113 12.649016562145688 28.46836002751354 
  endloop 
 endfacet 
 facet normal -0.4695505040361637 -0.15256399046042968 0.07903513759192496
  outer loop
   vertex -20.69619581397443 25.000000000000004 9.35922080534107 
   vertex -25.565899342289413 25.000000000000004 -19.571857394750584 
   vertex -20.683788506681502 9.974407798635738 -19.57143608405409 
  endloop 
 endfacet 
 facet normal -0.4695506489903721 -0.15256363894063593 0.07903495496241941
  outer loop
   vertex -20.683788506681502 9.974407798635738 -19.57143608405409 
   vertex -16.74458075666975 12.838179329848163 9.35962312271754 
   vertex -20.69619581397443 25.000000000000004 9.35922080534107 
  endloop 
 endfacet 
 facet normal -0.46955052890957905 0.15256399854687372 0.07903497420841059
  outer loop
   vertex -16.744580756669755 37.16182067015184 9.35962312271754 
   vertex -20.683788506681495 40.02559220136426 -19.57143608405409 
   vertex -25.565899342289413 25.000000000000004 -19.571857394750584 
  endloop 
 endfacet 
 facet normal -0.4695506182602562 0.15256362894913852 0.07903515681822072
  outer loop
   vertex -25.565899342289413 25.000000000000004 -19.571857394750584 
   vertex -20.69619581397443 25.000000000000004 9.35922080534107 
   vertex -16.744580756669755 37.16182067015184 9.35962312271754 
  endloop 
 endfacet 
 facet normal -0.2902008677526437 0.39941783688014293 0.07904965488602805
  outer loop
   vertex -6.399118226190255 44.67823920938669 9.360676403283405 
   vertex -7.902256402215827 49.31191888290273 -19.57033307833084 
   vertex -20.683788506681495 40.02559220136426 -19.57143608405409 
  endloop 
 endfacet 
 facet normal -0.290201625742743 0.3994171915475423 0.07905013290654743
  outer loop
   vertex -20.683788506681495 40.02559220136426 -19.57143608405409 
   vertex -16.744580756669755 37.16182067015184 9.35962312271754 
   vertex -6.399118226190255 44.67823920938669 9.360676403283405 
  endloop 
 endfacet 
 facet normal -0.000006823798738035399 0.4937077780834357 0.07907357215500498
  outer loop
   vertex 6.3885767201593975 44.67823920938669 9.361978329662191 
   vertex 7.896586135499682 49.31191888290273 -19.568969688277335 
   vertex -7.902256402215827 49.31191888290273 -19.57033307833084 
  endloop 
 endfacet 
 facet normal -0.000008050609518039164 0.49370768343834454 0.07907416296826056
  outer loop
   vertex -7.902256402215827 49.31191888290273 -19.57033307833084 
   vertex -6.399118226190255 44.67823920938669 9.360676403283405 
   vertex 6.3885767201593975 44.67823920938669 9.361978329662191 
  endloop 
 endfacet 
 facet normal 0.2901874225605676 0.3994181154792739 0.07909759044775
  outer loop
   vertex 16.734039250638894 37.16182067015183 9.363031610228056 
   vertex 20.678118239965336 40.02559220136426 -19.567866682554087 
   vertex 7.896586135499682 49.31191888290273 -19.568969688277335 
  endloop 
 endfacet 
 facet normal 0.2901865746255522 0.3994186368712664 0.07909806841502633
  outer loop
   vertex 7.896586135499682 49.31191888290273 -19.568969688277335 
   vertex 6.3885767201593975 44.67823920938669 9.361978329662191 
   vertex 16.734039250638894 37.16182067015183 9.363031610228056 
  endloop 
 endfacet 
 facet normal 0.46953741121161363 0.15256417073190812 0.07911253555272511
  outer loop
   vertex 20.68565430794357 25 9.363433927604525 
   vertex 25.560229075573254 25 -19.56744537185759 
   vertex 20.678118239965336 40.02559220136426 -19.567866682554087 
  endloop 
 endfacet 
 facet normal 0.469537266246709 0.15256452220522734 0.07911271812962688
  outer loop
   vertex 20.678118239965336 40.02559220136426 -19.567866682554087 
   vertex 16.734039250638894 37.16182067015183 9.363031610228056 
   vertex 20.68565430794357 25 9.363433927604525 
  endloop 
 endfacet 
 facet normal 0.4695373863149555 -0.15256416264707384 0.07911269890679641
  outer loop
   vertex 16.73403925063889 12.83817932984816 9.363031610228056 
   vertex 20.678118239965336 9.974407798635728 -19.567866682554087 
   vertex 25.560229075573254 25 -19.56744537185759 
  endloop 
 endfacet 
 facet normal 0.46953729700613883 -0.1525645321928957 0.07911251631020157
  outer loop
   vertex 25.560229075573254 25 -19.56744537185759 
   vertex 20.68565430794357 25 9.363433927604525 
   vertex 16.73403925063889 12.83817932984816 9.363031610228056 
  endloop 
 endfacet 
 facet normal 0.2901873822612992 -0.3994180600628894 0.07909801812898165
  outer loop
   vertex 6.3885767201593975 5.321760790613311 9.361978329662191 
   vertex 7.896586135499677 0.6880811170972727 -19.568969688277335 
   vertex 20.678118239965336 9.974407798635728 -19.567866682554087 
  endloop 
 endfacet 
 facet normal 0.2901866244195457 -0.39941870533277524 0.07909754002672424
  outer loop
   vertex 20.678118239965336 9.974407798635728 -19.567866682554087 
   vertex 16.73403925063889 12.83817932984816 9.363031610228056 
   vertex 6.3885767201593975 5.321760790613311 9.361978329662191 
  endloop 
 endfacet 
 facet normal -0.0000068238443609096 -0.49370769340952547 0.07907410082752231
  outer loop
   vertex -6.39911822619025 5.3217607906133075 9.360676403283405 
   vertex -7.902256402215843 0.6880811170972763 -19.57033307833084 
   vertex 7.896586135499677 0.6880811170972727 -19.568969688277335 
  endloop 
 endfacet 
 facet normal -0.000008050543019088644 -0.4937077880506129 0.07907350980802554
  outer loop
   vertex 7.896586135499677 0.6880811170972727 -19.568969688277335 
   vertex 6.3885767201593975 5.321760790613311 9.361978329662191 
   vertex -6.39911822619025 5.3217607906133075 9.360676403283405 
  endloop 
 endfacet 
 facet normal -0.2902008275222413 -0.39941778145694007 0.07905008261489953
  outer loop
   vertex -16.74458075666975 12.838179329848163 9.35962312271754 
   vertex -20.683788506681502 9.974407798635738 -19.57143608405409 
   vertex -7.902256402215843 0.6880811170972763 -19.57033307833084 
  endloop 
 endfacet 
 facet normal -0.29020167544092396 -0.39941726002527106 0.07904960445938791
  outer loop
   vertex -7.902256402215843 0.6880811170972763 -19.57033307833084 
   vertex -6.39911822619025 5.3217607906133075 9.360676403283405 
   vertex -16.74458075666975 12.838179329848163 9.35962312271754 
  endloop 
 endfacet 
 facet normal -0.47477739851717626 -0.15426517360069814 -0.02808341274148939
  outer loop
   vertex -25.565899342289413 25.000000000000004 -19.571857394750584 
   vertex -24.15096804555616 25.000000000000004 -43.49264673496814 
   vertex -19.538815762472122 10.80525481184771 -43.49232027392231 
  endloop 
 endfacet 
 facet normal -0.4747773615739079 -0.15426530297000662 -0.02808332666353404
  outer loop
   vertex -19.538815762472122 10.80525481184771 -43.49232027392231 
   vertex -20.683788506681502 9.974407798635738 -19.57143608405409 
   vertex -25.565899342289413 25.000000000000004 -19.571857394750584 
  endloop 
 endfacet 
 facet normal -0.47477740325394735 0.1542651751377327 -0.028083324218534333
  outer loop
   vertex -20.683788506681495 40.02559220136426 -19.57143608405409 
   vertex -19.538815762472115 39.1947451881523 -43.49232027392231 
   vertex -24.15096804555616 25.000000000000004 -43.49264673496814 
  endloop 
 endfacet 
 facet normal -0.4747773570989347 0.1542653015183449 -0.02808341029157164
  outer loop
   vertex -24.15096804555616 25.000000000000004 -43.49264673496814 
   vertex -25.565899342289413 25.000000000000004 -19.571857394750584 
   vertex -20.683788506681495 40.02559220136426 -19.57143608405409 
  endloop 
 endfacet 
 facet normal -0.29342775075165844 0.40387138501714465 -0.028072396640755632
  outer loop
   vertex -7.902256402215827 49.31191888290273 -19.57033307833084 
   vertex -7.464044324067685 47.96758017607442 -43.491465587808335 
   vertex -19.538815762472115 39.1947451881523 -43.49232027392231 
  endloop 
 endfacet 
 facet normal -0.29342745847438706 0.4038715817031253 -0.0280726219986242
  outer loop
   vertex -19.538815762472115 39.1947451881523 -43.49232027392231 
   vertex -20.683788506681495 40.02559220136426 -19.57143608405409 
   vertex -7.902256402215827 49.31191888290273 -19.57033307833084 
  endloop 
 endfacet 
 facet normal 0.000001985797531446865 0.4992123075153015 -0.028054803889969643
  outer loop
   vertex 7.896586135499682 49.31191888290273 -19.568969688277335 
   vertex 7.461193986573118 47.96758017607442 -43.49040913767203 
   vertex -7.464044324067685 47.96758017607442 -43.491465587808335 
  endloop 
 endfacet 
 facet normal 0.0000024210647288011076 0.49921229185621796 -0.028055082494990023
  outer loop
   vertex -7.464044324067685 47.96758017607442 -43.491465587808335 
   vertex -7.902256402215827 49.31191888290273 -19.57033307833084 
   vertex 7.896586135499682 49.31191888290273 -19.568969688277335 
  endloop 
 endfacet 
 facet normal 0.2934315106561949 0.40387109364480883 -0.028037265775560306
  outer loop
   vertex 20.678118239965336 40.02559220136426 -19.567866682554087 
   vertex 19.535965424977547 39.19474518815229 -43.48955445155806 
   vertex 7.461193986573118 47.96758017607442 -43.49040913767203 
  endloop 
 endfacet 
 facet normal 0.29343178815218357 0.4038708763800755 -0.028037491218042967
  outer loop
   vertex 7.461193986573118 47.96758017607442 -43.49040913767203 
   vertex 7.896586135499682 49.31191888290273 -19.568969688277335 
   vertex 20.678118239965336 40.02559220136426 -19.567866682554087 
  endloop 
 endfacet 
 facet normal 0.4747808206361755 0.1542649950585187 -0.028026481328111277
  outer loop
   vertex 25.560229075573254 25 -19.56744537185759 
   vertex 24.148117708061587 25 -43.48922799051223 
   vertex 19.535965424977547 39.19474518815229 -43.48955445155806 
  endloop 
 endfacet 
 facet normal 0.47478085761347844 0.15426486560648647 -0.02802656745344527
  outer loop
   vertex 19.535965424977547 39.19474518815229 -43.48955445155806 
   vertex 20.678118239965336 40.02559220136426 -19.567866682554087 
   vertex 25.560229075573254 25 -19.56744537185759 
  endloop 
 endfacet 
 facet normal 0.4747808159073463 -0.1542649935199916 -0.028026569904851553
  outer loop
   vertex 20.678118239965336 9.974407798635728 -19.567866682554087 
   vertex 19.53596542497755 10.8052548118477 -43.48955445155806 
   vertex 24.148117708061587 25 -43.48922799051223 
  endloop 
 endfacet 
 facet normal 0.4747808620807011 -0.1542648670603213 -0.02802648377459642
  outer loop
   vertex 24.148117708061587 25 -43.48922799051223 
   vertex 25.560229075573254 25 -19.56744537185759 
   vertex 20.678118239965336 9.974407798635728 -19.567866682554087 
  endloop 
 endfacet 
 facet normal 0.2934315030124755 -0.4038710831015428 -0.02803749764558588
  outer loop
   vertex 7.896586135499677 0.6880811170972727 -19.568969688277335 
   vertex 7.461193986573113 2.0324198239255793 -43.49040913767203 
   vertex 19.53596542497755 10.8052548118477 -43.48955445155806 
  endloop 
 endfacet 
 facet normal 0.293431795371015 -0.40387088634196333 -0.028037272169376813
  outer loop
   vertex 19.53596542497755 10.8052548118477 -43.48955445155806 
   vertex 20.678118239965336 9.974407798635728 -19.567866682554087 
   vertex 7.896586135499677 0.6880811170972727 -19.568969688277335 
  endloop 
 endfacet 
 facet normal 0.0000019858178146122288 -0.49921229141145446 -0.028055090443298354
  outer loop
   vertex -7.902256402215843 0.6880811170972763 -19.57033307833084 
   vertex -7.464044324067681 2.0324198239255757 -43.491465587808335 
   vertex 7.461193986573113 2.0324198239255793 -43.49040913767203 
  endloop 
 endfacet 
 facet normal 0.0000024210413674262257 -0.49921230706959546 -0.028054811786758966
  outer loop
   vertex 7.461193986573113 2.0324198239255793 -43.49040913767203 
   vertex 7.896586135499677 0.6880811170972727 -19.568969688277335 
   vertex -7.902256402215843 0.6880811170972763 -19.57033307833084 
  endloop 
 endfacet 
 facet normal -0.2934277430797146 -0.40387137448020105 -0.028072628423754513
  outer loop
   vertex -20.683788506681502 9.974407798635738 -19.57143608405409 
   vertex -19.538815762472122 10.80525481184771 -43.49232027392231 
   vertex -7.464044324067681 2.0324198239255757 -43.491465587808335 
  endloop 
 endfacet 
 facet normal -0.2934274657243307 -0.4038715916558083 -0.02807240303217283
  outer loop
   vertex -7.464044324067681 2.0324198239255757 -43.491465587808335 
   vertex -7.902256402215843 0.6880811170972763 -19.57033307833084 
   vertex -20.683788506681502 9.974407798635738 -19.57143608405409 
  endloop 
 endfacet 
 facet normal -0.46968930729996605 -0.1526127095274363 -0.07811091792299193
  outer loop
   vertex -24.15096804555616 25.000000000000004 -43.49264673496814 
   vertex -21.11445003363042 25.000000000000004 -61.751554446580926 
   vertex -17.082074358209532 12.58962374909659 -61.7513315821708 
  endloop 
 endfacet 
 facet normal -0.46968923370849636 -0.15261307920323736 -0.07811063816428532
  outer loop
   vertex -17.082074358209532 12.58962374909659 -61.7513315821708 
   vertex -19.538815762472122 10.80525481184771 -43.49232027392231 
   vertex -24.15096804555616 25.000000000000004 -43.49264673496814 
  endloop 
 endfacet 
 facet normal -0.4696893522050938 0.15261272411263635 -0.0781106194065807
  outer loop
   vertex -19.538815762472115 39.1947451881523 -43.49232027392231 
   vertex -17.082074358209525 37.41037625090341 -61.7513315821708 
   vertex -21.11445003363042 25.000000000000004 -61.751554446580926 
  endloop 
 endfacet 
 facet normal -0.4696891944478394 0.15261306645267939 -0.07811089915530217
  outer loop
   vertex -21.11445003363042 25.000000000000004 -61.751554446580926 
   vertex -24.15096804555616 25.000000000000004 -43.49264673496814 
   vertex -19.538815762472115 39.1947451881523 -43.49232027392231 
  endloop 
 endfacet 
 facet normal -0.29028219332912275 0.3995451034316284 -0.0781022314651968
  outer loop
   vertex -7.464044324067685 47.96758017607442 -43.491465587808335 
   vertex -6.525177784549322 45.080410587136214 -61.75074811557021 
   vertex -17.082074358209525 37.41037625090341 -61.7513315821708 
  endloop 
 endfacet 
 facet normal -0.2902813323400992 0.399545585798268 -0.07810296386165982
  outer loop
   vertex -17.082074358209525 37.41037625090341 -61.7513315821708 
   vertex -19.538815762472115 39.1947451881523 -43.49232027392231 
   vertex -7.464044324067685 47.96758017607442 -43.491465587808335 
  endloop 
 endfacet 
 facet normal 0.000004315880003758481 0.4938644699026613 -0.07808895792067234
  outer loop
   vertex 7.461193986573118 47.96758017607442 -43.49040913767203 
   vertex 6.523864011929306 45.08041058713621 -61.75002691118929 
   vertex -6.525177784549322 45.080410587136214 -61.75074811557021 
  endloop 
 endfacet 
 facet normal 0.000005527419057705564 0.4938643267400033 -0.0780898632543998
  outer loop
   vertex -6.525177784549322 45.080410587136214 -61.75074811557021 
   vertex -7.464044324067685 47.96758017607442 -43.491465587808335 
   vertex 7.461193986573118 47.96758017607442 -43.49040913767203 
  endloop 
 endfacet 
 facet normal 0.29029029303400167 0.39954437110654184 -0.07807586878998808
  outer loop
   vertex 19.535965424977547 39.19474518815229 -43.48955445155806 
   vertex 17.080760585589505 37.410376250903404 -61.7494434445887 
   vertex 6.523864011929306 45.08041058713621 -61.75002691118929 
  endloop 
 endfacet 
 facet normal 0.2902910179717916 0.39954370126302846 -0.07807660127042412
  outer loop
   vertex 6.523864011929306 45.08041058713621 -61.75002691118929 
   vertex 7.461193986573118 47.96758017607442 -43.49040913767203 
   vertex 19.535965424977547 39.19474518815229 -43.48955445155806 
  endloop 
 endfacet 
 facet normal 0.46969659102634015 0.1526122715074144 -0.07806796374686704
  outer loop
   vertex 24.148117708061587 25 -43.48922799051223 
   vertex 21.113136261010396 25 -61.74922058017857 
   vertex 17.080760585589505 37.410376250903404 -61.7494434445887 
  endloop 
 endfacet 
 facet normal 0.4696966646607387 0.15261190175077263 -0.07806824354748876
  outer loop
   vertex 17.080760585589505 37.410376250903404 -61.7494434445887 
   vertex 19.535965424977547 39.19474518815229 -43.48955445155806 
   vertex 24.148117708061587 25 -43.48922799051223 
  endloop 
 endfacet 
 facet normal 0.4696965461411719 -0.15261225691797747 -0.07806826231866075
  outer loop
   vertex 19.53596542497755 10.8052548118477 -43.48955445155806 
   vertex 17.080760585589502 12.589623749096585 -61.7494434445887 
   vertex 21.113136261010396 25 -61.74922058017857 
  endloop 
 endfacet 
 facet normal 0.4696967039031718 -0.1526119145074154 -0.07806798250805154
  outer loop
   vertex 21.113136261010396 25 -61.74922058017857 
   vertex 24.148117708061587 25 -43.48922799051223 
   vertex 19.53596542497755 10.8052548118477 -43.48955445155806 
  endloop 
 endfacet 
 facet normal 0.29029022042880354 -0.39954427111460006 -0.07807665043340169
  outer loop
   vertex 7.461193986573113 2.0324198239255793 -43.49040913767203 
   vertex 6.523864011929301 4.919589412863793 -61.75002691118929 
   vertex 17.080760585589502 12.589623749096585 -61.7494434445887 
  endloop 
 endfacet 
 facet normal 0.2902910814431191 -0.3995437886903949 -0.07807591788451443
  outer loop
   vertex 17.080760585589502 12.589623749096585 -61.7494434445887 
   vertex 19.53596542497755 10.8052548118477 -43.48955445155806 
   vertex 7.461193986573113 2.0324198239255793 -43.49040913767203 
  endloop 
 endfacet 
 facet normal 0.000004315933399138307 -0.49386431714228024 -0.07808992402968477
  outer loop
   vertex -7.464044324067681 2.0324198239255757 -43.491465587808335 
   vertex -6.525177784549327 4.919589412863793 -61.75074811557021 
   vertex 6.523864011929301 4.919589412863793 -61.75002691118929 
  endloop 
 endfacet 
 facet normal 0.0000055273592702107745 -0.4938644602974418 -0.07808901859138005
  outer loop
   vertex 6.523864011929301 4.919589412863793 -61.75002691118929 
   vertex 7.461193986573113 2.0324198239255793 -43.49040913767203 
   vertex -7.464044324067681 2.0324198239255757 -43.491465587808335 
  endloop 
 endfacet 
 facet normal -0.2902821206505695 -0.3995450034576357 -0.07810301301900024
  outer loop
   vertex -19.538815762472122 10.80525481184771 -43.49232027392231 
   vertex -17.082074358209532 12.58962374909659 -61.7513315821708 
   vertex -6.525177784549327 4.919589412863793 -61.75074811557021 
  endloop 
 endfacet 
 facet normal -0.2902813958894385 -0.3995456731998588 -0.07810228055409561
  outer loop
   vertex -6.525177784549327 4.919589412863793 -61.75074811557021 
   vertex -7.464044324067681 2.0324198239255757 -43.491465587808335 
   vertex -19.538815762472122 10.80525481184771 -43.49232027392231 
  endloop 
 endfacet 
 facet normal -0.4746073079614763 -0.15420886042277185 0.031105153860259274
  outer loop
   vertex -21.11445003363042 25.000000000000004 -61.751554446580926 
   vertex -21.934026120059357 25.000000000000004 -74.2567747003411 
   vertex -17.745062813687696 12.107696583960978 -74.25660816927375 
  endloop 
 endfacet 
 facet normal -0.474607363448823 -0.15420872154547566 0.03110499573166256
  outer loop
   vertex -17.745062813687696 12.107696583960978 -74.25660816927375 
   vertex -17.082074358209532 12.58962374909659 -61.7513315821708 
   vertex -21.11445003363042 25.000000000000004 -61.751554446580926 
  endloop 
 endfacet 
 facet normal -0.4746073171561718 0.15420886341231316 0.03110499874463018
  outer loop
   vertex -17.082074358209525 37.41037625090341 -61.7513315821708 
   vertex -17.745062813687696 37.89230341603903 -74.25660816927375 
   vertex -21.934026120059357 25.000000000000004 -74.2567747003411 
  endloop 
 endfacet 
 facet normal -0.47460735389731223 0.1542087184391083 0.031105156870835007
  outer loop
   vertex -21.934026120059357 25.000000000000004 -74.2567747003411 
   vertex -21.11445003363042 25.000000000000004 -61.751554446580926 
   vertex -17.082074358209525 37.41037625090341 -61.7513315821708 
  endloop 
 endfacet 
 facet normal -0.2933240305609908 0.40372418995352044 0.03110934814213524
  outer loop
   vertex -6.525177784549322 45.080410587136214 -61.75074811557021 
   vertex -6.778214499980543 45.860185120427516 -74.25617218527924 
   vertex -17.745062813687696 37.89230341603903 -74.25660816927375 
  endloop 
 endfacet 
 facet normal -0.29332433143656905 0.40372393945861795 0.03110976205797776
  outer loop
   vertex -17.745062813687696 37.89230341603903 -74.25660816927375 
   vertex -17.082074358209525 37.41037625090341 -61.7513315821708 
   vertex -6.525177784549322 45.080410587136214 -61.75074811557021 
  endloop 
 endfacet 
 facet normal -0.0000012370294010916826 0.49903082157341866 0.03111654091039845
  outer loop
   vertex 6.523864011929306 45.08041058713621 -61.75002691118929 
   vertex 6.777555514690436 45.860185120427516 -74.25563327942493 
   vertex -6.778214499980543 45.860185120427516 -74.25617218527924 
  endloop 
 endfacet 
 facet normal -0.0000017198009533596767 0.49903078967718373 0.031117052418387494
  outer loop
   vertex -6.778214499980543 45.860185120427516 -74.25617218527924 
   vertex -6.525177784549322 45.080410587136214 -61.75074811557021 
   vertex 6.523864011929306 45.08041058713621 -61.75002691118929 
  endloop 
 endfacet 
 facet normal 0.293321880505141 0.40372463591058017 0.031123829709681534
  outer loop
   vertex 17.080760585589505 37.410376250903404 -61.7494434445887 
   vertex 17.74440382839758 37.89230341603903 -74.25519729543042 
   vertex 6.777555514690436 45.860185120427516 -74.25563327942493 
  endloop 
 endfacet 
 facet normal 0.2933215494305415 0.40372484455413904 0.03112424343502519
  outer loop
   vertex 6.777555514690436 45.860185120427516 -74.25563327942493 
   vertex 6.523864011929306 45.08041058713621 -61.75002691118929 
   vertex 17.080760585589505 37.410376250903404 -61.7494434445887 
  endloop 
 endfacet 
 facet normal 0.4746056913532446 0.15420913903183953 0.03112843031968488
  outer loop
   vertex 21.113136261010396 25 -61.74922058017857 
   vertex 21.93336713476924 25 -74.25503076436307 
   vertex 17.74440382839758 37.89230341603903 -74.25519729543042 
  endloop 
 endfacet 
 facet normal 0.4746056358963354 0.15420927781470037 0.031128588328154325
  outer loop
   vertex 17.74440382839758 37.89230341603903 -74.25519729543042 
   vertex 17.080760585589505 37.410376250903404 -61.7494434445887 
   vertex 21.113136261010396 25 -61.74922058017857 
  endloop 
 endfacet 
 facet normal 0.47460568215726984 -0.1542091360458883 0.031128585319820348
  outer loop
   vertex 17.080760585589502 12.589623749096585 -61.7494434445887 
   vertex 17.74440382839758 12.107696583960967 -74.25519729543042 
   vertex 21.93336713476924 25 -74.25503076436307 
  endloop 
 endfacet 
 facet normal 0.47460564544965245 -0.15420928091586966 0.03112842730896083
  outer loop
   vertex 21.93336713476924 25 -74.25503076436307 
   vertex 21.113136261010396 25 -61.74922058017857 
   vertex 17.080760585589502 12.589623749096585 -61.7494434445887 
  endloop 
 endfacet 
 facet normal 0.2933218656161634 -0.40372461543986815 0.031124235563046512
  outer loop
   vertex 6.523864011929301 4.919589412863793 -61.75002691118929 
   vertex 6.77755551469043 4.13981487957248 -74.25563327942493 
   vertex 17.74440382839758 12.107696583960967 -74.25519729543042 
  endloop 
 endfacet 
 facet normal 0.2933215649019775 -0.40372486581667194 0.03112382182131926
  outer loop
   vertex 17.74440382839758 12.107696583960967 -74.25519729543042 
   vertex 17.080760585589502 12.589623749096585 -61.7494434445887 
   vertex 6.523864011929301 4.919589412863793 -61.75002691118929 
  endloop 
 endfacet 
 facet normal -0.0000012370493489988755 -0.4990307902853372 0.031117042688237596
  outer loop
   vertex -6.525177784549327 4.919589412863793 -61.75074811557021 
   vertex -6.778214499980541 4.1398148795724765 -74.25617218527924 
   vertex 6.77755551469043 4.13981487957248 -74.25563327942493 
  endloop 
 endfacet 
 facet normal -0.00000171977214406117 -0.4990308221802629 0.031116531155211465
  outer loop
   vertex 6.77755551469043 4.13981487957248 -74.25563327942493 
   vertex 6.523864011929301 4.919589412863793 -61.75002691118929 
   vertex -6.525177784549327 4.919589412863793 -61.75074811557021 
  endloop 
 endfacet 
 facet normal -0.293324015693241 -0.4037241694676002 0.03110975418237362
  outer loop
   vertex -17.082074358209532 12.58962374909659 -61.7513315821708 
   vertex -17.745062813687696 12.107696583960978 -74.25660816927375 
   vertex -6.778214499980541 4.1398148795724765 -74.25617218527924 
  endloop 
 endfacet 
 facet normal -0.29332434687738945 -0.40372396074317146 0.031109340250141622
  outer loop
   vertex -6.778214499980541 4.1398148795724765 -74.25617218527924 
   vertex -6.525177784549327 4.919589412863793 -61.75074811557021 
   vertex -17.082074358209532 12.58962374909659 -61.7513315821708 
  endloop 
 endfacet 
 facet normal -0.23455925644889364 -0.07620949661242055 0.4349414533477162
  outer loop
   vertex -21.934026120059357 25.000000000000004 -74.2567747003411 
   vertex -38.244619352661246 25.000000000000004 -83.05290252727623 
   vertex -30.940575582367234 2.5204647267540174 -83.05272547223925 
  endloop 
 endfacet 
 facet normal -0.23456169974170943 -0.07620809800287846 0.4349403807570227
  outer loop
   vertex -30.940575582367234 2.5204647267540174 -83.05272547223925 
   vertex -17.745062813687696 12.107696583960978 -74.25660816927375 
   vertex -21.934026120059357 25.000000000000004 -74.2567747003411 
  endloop 
 endfacet 
 facet normal -0.23456056780204051 0.07620992270304477 0.43494067148748033
  outer loop
   vertex -17.745062813687696 37.89230341603903 -74.25660816927375 
   vertex -30.940575582367234 47.47953527324597 -83.05272547223925 
   vertex -38.244619352661246 25.000000000000004 -83.05290252727623 
  endloop 
 endfacet 
 facet normal -0.23455941321599455 0.07620735504802871 0.4349417440397645
  outer loop
   vertex -38.244619352661246 25.000000000000004 -83.05290252727623 
   vertex -21.934026120059357 25.000000000000004 -74.2567747003411 
   vertex -17.745062813687696 37.89230341603903 -74.25660816927375 
  endloop 
 endfacet 
 facet normal -0.14497263809121957 0.19952320641851068 0.43494071355225944
  outer loop
   vertex -6.778214499980543 45.860185120427516 -74.25617218527924 
   vertex -11.81834073642056 61.37265212341414 -83.05226193613453 
   vertex -30.940575582367234 47.47953527324597 -83.05272547223925 
  endloop 
 endfacet 
 facet normal -0.14497414387521215 0.19951599130790104 0.4349435214140737
  outer loop
   vertex -30.940575582367234 47.47953527324597 -83.05272547223925 
   vertex -17.745062813687696 37.89230341603903 -74.25660816927375 
   vertex -6.778214499980543 45.860185120427516 -74.25617218527924 
  endloop 
 endfacet 
 facet normal -0.000010543282193475078 0.2466289442947822 0.4349415635747869
  outer loop
   vertex 6.777555514690436 45.860185120427516 -74.25563327942493 
   vertex 11.818041414884744 61.372652123414134 -83.05168897399909 
   vertex -11.81834073642056 61.37265212341414 -83.05226193613453 
  endloop 
 endfacet 
 facet normal -0.000017291118465947766 0.24662282325099855 0.4349450341741172
  outer loop
   vertex -11.81834073642056 61.37265212341414 -83.05226193613453 
   vertex -6.778214499980543 45.860185120427516 -74.25617218527924 
   vertex 6.777555514690436 45.860185120427516 -74.25563327942493 
  endloop 
 endfacet 
 facet normal 0.1449565735020341 0.1995301185905076 0.43494289691154553
  outer loop
   vertex 17.74440382839758 37.89230341603903 -74.25519729543042 
   vertex 30.9402762608314 47.47953527324597 -83.05122543789437 
   vertex 11.818041414884744 61.372652123414134 -83.05168897399909 
  endloop 
 endfacet 
 facet normal 0.14494924634117826 0.19952932111177693 0.4349457046595561
  outer loop
   vertex 11.818041414884744 61.372652123414134 -83.05168897399909 
   vertex 6.777555514690436 45.860185120427516 -74.25563327942493 
   vertex 17.74440382839758 37.89230341603903 -74.25519729543042 
  endloop 
 endfacet 
 facet normal 0.23455262898960227 0.07621419468038491 0.434944204195534
  outer loop
   vertex 21.93336713476924 25 -74.25503076436307 
   vertex 38.24432003112541 25.000000000000004 -83.05104838285739 
   vertex 30.9402762608314 47.47953527324597 -83.05122543789437 
  endloop 
 endfacet 
 facet normal 0.23455018575503986 0.07621559327476417 0.43494527667748273
  outer loop
   vertex 30.9402762608314 47.47953527324597 -83.05122543789437 
   vertex 17.74440382839758 37.89230341603903 -74.25519729543042 
   vertex 21.93336713476924 25 -74.25503076436307 
  endloop 
 endfacet 
 facet normal 0.23455131767505497 -0.07621376861461832 0.4349449860044979
  outer loop
   vertex 17.74440382839758 12.107696583960967 -74.25519729543042 
   vertex 30.9402762608314 2.520464726754014 -83.05122543789437 
   vertex 38.24432003112541 25.000000000000004 -83.05104838285739 
  endloop 
 endfacet 
 facet normal 0.23455247221749015 -0.07621633617383984 0.43494391348414074
  outer loop
   vertex 38.24432003112541 25.000000000000004 -83.05104838285739 
   vertex 21.93336713476924 25 -74.25503076436307 
   vertex 17.74440382839758 12.107696583960967 -74.25519729543042 
  endloop 
 endfacet 
 facet normal 0.1449544517079332 -0.19952719825976054 0.43494494373962167
  outer loop
   vertex 6.77755551469043 4.13981487957248 -74.25563327942493 
   vertex 11.818041414884737 -11.372652123414142 -83.05168897399909 
   vertex 30.9402762608314 2.520464726754014 -83.05122543789437 
  endloop 
 endfacet 
 facet normal 0.14495294602237688 -0.19953441309080275 0.434942135728355
  outer loop
   vertex 30.9402762608314 2.520464726754014 -83.05122543789437 
   vertex 17.74440382839758 12.107696583960967 -74.25519729543042 
   vertex 6.77755551469043 4.13981487957248 -74.25563327942493 
  endloop 
 endfacet 
 facet normal -0.000010543343524255534 -0.24662448234599268 0.4349440936446994
  outer loop
   vertex -6.778214499980541 4.1398148795724765 -74.25617218527924 
   vertex -11.818340736420584 -11.372652123414134 -83.05226193613453 
   vertex 11.818041414884737 -11.372652123414142 -83.05168897399909 
  endloop 
 endfacet 
 facet normal -0.000017290943086700387 -0.2466306032831603 0.4349406226431462
  outer loop
   vertex 11.818041414884737 -11.372652123414142 -83.05168897399909 
   vertex 6.77755551469043 4.13981487957248 -74.25563327942493 
   vertex -6.778214499980541 4.1398148795724765 -74.25617218527924 
  endloop 
 endfacet 
 facet normal -0.14497051631984978 -0.19952028598246468 0.43494276046329555
  outer loop
   vertex -17.745062813687696 12.107696583960978 -74.25660816927375 
   vertex -30.940575582367234 2.5204647267540174 -83.05272547223925 
   vertex -11.818340736420584 -11.372652123414134 -83.05226193613453 
  endloop 
 endfacet 
 facet normal -0.14497784344429646 -0.1995210835231895 0.4349399523382205
  outer loop
   vertex -11.818340736420584 -11.372652123414134 -83.05226193613453 
   vertex -6.778214499980541 4.1398148795724765 -74.25617218527924 
   vertex -17.745062813687696 12.107696583960978 -74.25660816927375 
  endloop 
 endfacet 
 facet normal -0.39384362972737896 -0.12796675803568017 0.28019940071492105
  outer loop
   vertex -38.244619352661246 25.000000000000004 -83.05290252727623 
   vertex -50.44551695205305 25.000000000000007 -100.20228180580459 
   vertex -40.811280504240415 -4.651130909815759 -100.20219773125766 
  endloop 
 endfacet 
 facet normal -0.39384499247046906 -0.12796578836238204 0.28019792810570576
  outer loop
   vertex -40.811280504240415 -4.651130909815759 -100.20219773125766 
   vertex -30.940575582367234 2.5204647267540174 -83.05272547223925 
   vertex -38.244619352661246 25.000000000000004 -83.05290252727623 
  endloop 
 endfacet 
 facet normal 0 0 0
  outer loop
   vertex -50.44551695205305 25.000000000000007 -100.20228180580459 
   vertex -30.940575582367234 2.5204647267540174 -83.05272547223925 
   vertex -50.44551695205305 25.000000000000007 -100.20228180580459 
  endloop 
 endfacet 
 facet normal -0.3938444469958165 0.1279670235858938 0.28019813069527566
  outer loop
   vertex -30.940575582367234 47.47953527324597 -83.05272547223925 
   vertex -40.81128050424041 54.65113090981577 -100.20219773125766 
   vertex -50.44551695205305 25.000000000000007 -100.20228180580459 
  endloop 
 endfacet 
 facet normal -0.3938439144731995 0.1279654380866426 0.28019960329686544
  outer loop
   vertex -50.44551695205305 25.000000000000007 -100.20228180580459 
   vertex -38.244619352661246 25.000000000000004 -83.05290252727623 
   vertex -30.940575582367234 47.47953527324597 -83.05272547223925 
  endloop 
 endfacet 
 facet normal 0 0 0
  outer loop
   vertex -50.44551695205305 25.000000000000007 -100.20228180580459 
   vertex -50.44551695205305 25.000000000000007 -100.20228180580459 
   vertex -40.81128050424041 54.65113090981577 -100.20219773125766 
  endloop 
 endfacet 
 facet normal -0.24341151084234527 0.33502383725518436 0.2801961185674394
  outer loop
   vertex -11.81834073642056 61.37265212341414 -83.05226193613453 
   vertex -15.588522028213887 72.97653761695449 -100.20197762123617 
   vertex -40.81128050424041 54.65113090981577 -100.20219773125766 
  endloop 
 endfacet 
 facet normal -0.24341282279651216 0.33501965969349573 0.2801999737992281
  outer loop
   vertex -40.81128050424041 54.65113090981577 -100.20219773125766 
   vertex -30.940575582367234 47.47953527324597 -83.05272547223925 
   vertex -11.81834073642056 61.37265212341414 -83.05226193613453 
  endloop 
 endfacet 
 facet normal 0.00000436332175358465 -2.322567576791025e-16 -0.49999999998096145
  outer loop
   vertex -50.44551695205305 25.000000000000007 -100.20228180580459 
   vertex -40.81128050424041 54.65113090981577 -100.20219773125766 
   vertex -15.588522028213887 72.97653761695449 -100.20197762123617 
  endloop 
 endfacet 
 facet normal -0.000002445154311700845 0.4141150176081483 0.28019413303176827
  outer loop
   vertex 11.818041414884744 61.372652123414134 -83.05168897399909 
   vertex 15.588522028213907 72.97653761695449 -100.20170555028709 
   vertex -15.588522028213887 72.97653761695449 -100.20197762123617 
  endloop 
 endfacet 
 facet normal -0.00000679221371666219 0.41411179335741793 0.2801988982065579
  outer loop
   vertex -15.588522028213887 72.97653761695449 -100.20197762123617 
   vertex -11.81834073642056 61.37265212341414 -83.05226193613453 
   vertex 11.818041414884744 61.372652123414134 -83.05168897399909 
  endloop 
 endfacet 
 facet normal 0.000004363321753297579 -2.3686265137698238e-17 -0.49999999998096145
  outer loop
   vertex -50.44551695205305 25.000000000000007 -100.20228180580459 
   vertex -15.588522028213887 72.97653761695449 -100.20197762123617 
   vertex 15.588522028213907 72.97653761695449 -100.20170555028709 
  endloop 
 endfacet 
 facet normal 0.24340957718776815 0.3350279067497875 0.28019293251637817
  outer loop
   vertex 30.9402762608314 47.47953527324597 -83.05122543789437 
   vertex 40.811280504240415 54.65113090981576 -100.2014854402656 
   vertex 15.588522028213907 72.97653761695449 -100.20170555028709 
  endloop 
 endfacet 
 facet normal 0.2434051989076658 0.335027863636506 0.2801967875117029
  outer loop
   vertex 15.588522028213907 72.97653761695449 -100.20170555028709 
   vertex 11.818041414884744 61.372652123414134 -83.05168897399909 
   vertex 30.9402762608314 47.47953527324597 -83.05122543789437 
  endloop 
 endfacet 
 facet normal 0.000004363321753348139 -9.327699821558409e-17 -0.4999999999809614
  outer loop
   vertex -50.44551695205305 25.000000000000007 -100.20228180580459 
   vertex 15.588522028213907 72.97653761695449 -100.20170555028709 
   vertex 40.811280504240415 54.65113090981576 -100.2014854402656 
  endloop 
 endfacet 
 facet normal 0.3938472974007028 0.1279695387042286 0.2801929754543988
  outer loop
   vertex 38.24432003112541 25.000000000000004 -83.05104838285739 
   vertex 50.44551695205305 25.000000000000004 -100.20140136571867 
   vertex 40.811280504240415 54.65113090981576 -100.2014854402656 
  endloop 
 endfacet 
 facet normal 0.39384593479411106 0.12797050834723497 0.2801944479098454
  outer loop
   vertex 40.811280504240415 54.65113090981576 -100.2014854402656 
   vertex 30.9402762608314 47.47953527324597 -83.05122543789437 
   vertex 38.24432003112541 25.000000000000004 -83.05104838285739 
  endloop 
 endfacet 
 facet normal 0.000004363321753275053 1.3166080091109585e-16 -0.49999999998096145
  outer loop
   vertex -50.44551695205305 25.000000000000007 -100.20228180580459 
   vertex 40.811280504240415 54.65113090981576 -100.2014854402656 
   vertex 50.44551695205305 25.000000000000004 -100.20140136571867 
  endloop 
 endfacet 
 facet normal 0.39384648023317403 -0.12796927319400406 0.2801942453480057
  outer loop
   vertex 30.9402762608314 2.520464726754014 -83.05122543789437 
   vertex 40.811280504240415 -4.651130909815777 -100.2014854402656 
   vertex 50.44551695205305 25.000000000000004 -100.20140136571867 
  endloop 
 endfacet 
 facet normal 0.3938470126632423 -0.1279708585549525 0.280192772884934
  outer loop
   vertex 50.44551695205305 25.000000000000004 -100.20140136571867 
   vertex 38.24432003112541 25.000000000000004 -83.05104838285739 
   vertex 30.9402762608314 2.520464726754014 -83.05122543789437 
  endloop 
 endfacet 
 facet normal 0.0000043633217532750534 -1.3166094588052522e-16 -0.49999999998096145
  outer loop
   vertex -50.44551695205305 25.000000000000007 -100.20228180580459 
   vertex 50.44551695205305 25.000000000000004 -100.20140136571867 
   vertex 40.811280504240415 -4.651130909815777 -100.2014854402656 
  endloop 
 endfacet 
 facet normal 0.24340825493382015 -0.3350260868632931 0.2801962572040205
  outer loop
   vertex 11.818041414884737 -11.372652123414142 -83.05168897399909 
   vertex 15.588522028213893 -22.976537616954495 -100.20170555028709 
   vertex 40.811280504240415 -4.651130909815777 -100.2014854402656 
  endloop 
 endfacet 
 facet normal 0.2434069430418499 -0.33503026408494846 0.2801924021564313
  outer loop
   vertex 40.811280504240415 -4.651130909815777 -100.2014854402656 
   vertex 30.9402762608314 2.520464726754014 -83.05122543789437 
   vertex 11.818041414884737 -11.372652123414142 -83.05168897399909 
  endloop 
 endfacet 
 facet normal 0.000004363321753348138 9.327520629488957e-17 -0.4999999999809614
  outer loop
   vertex -50.44551695205305 25.000000000000007 -100.20228180580459 
   vertex 40.811280504240415 -4.651130909815777 -100.2014854402656 
   vertex 15.588522028213893 -22.976537616954495 -100.20170555028709 
  endloop 
 endfacet 
 facet normal -0.000002445190175196295 -0.41411223693960325 0.2801982426977353
  outer loop
   vertex -11.818340736420584 -11.372652123414134 -83.05226193613453 
   vertex -15.588522028213877 -22.976537616954502 -100.20197762123617 
   vertex 15.588522028213893 -22.976537616954495 -100.20170555028709 
  endloop 
 endfacet 
 facet normal -0.000006792082313882065 -0.41411546113640285 0.2801934774430912
  outer loop
   vertex 15.588522028213893 -22.976537616954495 -100.20170555028709 
   vertex 11.818041414884737 -11.372652123414142 -83.05168897399909 
   vertex -11.818340736420584 -11.372652123414134 -83.05226193613453 
  endloop 
 endfacet 
 facet normal 0.000004363321753297582 2.3691484037158158e-17 -0.4999999999809614
  outer loop
   vertex -50.44551695205305 25.000000000000007 -100.20228180580459 
   vertex 15.588522028213893 -22.976537616954495 -100.20170555028709 
   vertex -15.588522028213877 -22.976537616954502 -100.20197762123617 
  endloop 
 endfacet 
 facet normal -0.24341018852335247 -0.33502201719929353 0.280199443459016
  outer loop
   vertex -30.940575582367234 2.5204647267540174 -83.05272547223925 
   vertex -40.811280504240415 -4.651130909815759 -100.20219773125766 
   vertex -15.588522028213877 -22.976537616954502 -100.20197762123617 
  endloop 
 endfacet 
 facet normal -0.2434145669274315 -0.33502206043008326 0.2801955881749615
  outer loop
   vertex -15.588522028213877 -22.976537616954502 -100.20197762123617 
   vertex -11.818340736420584 -11.372652123414134 -83.05226193613453 
   vertex -30.940575582367234 2.5204647267540174 -83.05272547223925 
  endloop 
 endfacet 
 facet normal 0.000004363321753584645 2.3225334186505973e-16 -0.49999999998096134
  outer loop
   vertex -50.44551695205305 25.000000000000007 -100.20228180580459 
   vertex -15.588522028213877 -22.976537616954502 -100.20197762123617 
   vertex -40.811280504240415 -4.651130909815759 -100.20219773125766 
  endloop 
 endfacet 
endsolid
