<svg id="Layer_1" data-name="Layer 1" xmlns="http://www.w3.org/2000/svg" width="500" height="500" viewBox="0 0 500 500">
   <g height="500" width="500px">
      <rect id="bkgrnd" x="0" y="0" width="500" height="500" style="fill:#C0C0C0"/> 
      <path id="curve2" style="stroke-width:1; stroke:red; fill:none" d="M 250 250 Q328.55434577878714 132.1684813318193 362.9284946790071 93.33461807450334Q414.715615129767 34.82861811759702 436.4078171934452 55.230473824360956Q459.44974171271235 76.9017646351437 444.76952617563904 164.52402395323395Q429.0576317753517 258.30409700759026 385.09263611023016 338.50408865897043Q336.6677770800542 426.839666342659 278.22400161197345 445.5060235330194Q218.14537807867748 464.6945348397569 161.4959113410295 404.55289751119744Q109.13373687097283 348.9628436577858 75.68484551728235 246.63721990312987Q44.89946941761502 152.45972449347778 50.767078232831864 91.26642723016946Q56.30670763428691 33.49362754852052 95.44710248880247 56.022037830982754Q129.52458332584632 75.63633841592173 194.11690036021466 167.57630295164836L312.30827270267537 341.50717875506393Q375.5621243295585 430.2929650647749 408.7335727698304 446.18724601329814Q446.2771569701893 464.1764597242854 449.708669074921 402.3967167838069Q453.34713701949624 336.89101333514947 420.9197816176563 243.27539055577301Q385.6081932684038 141.333178689286 332.42369704835164 89.24311468967622Q275.12613961117614 33.12462817483174 215.13464375540443 56.868444690144315Q157.1439637544692 79.82036555657393 110.02506248129177 170.65188537387695Q67.2415545471942 253.12602937480867 53.812753986701836 344.4843972796926Q41.250645334429066 429.9465157128062 66.1342948670646 446.8130010163284Q89.48559199295246 462.6408364500103 142.6854163999124 400.1974493543362Q175.45375392453738 361.73555577966175 256.72460944422664 239.91546243863846"/> 
   </g>
 </svg>
