<svg width="800" height="600" xmlns="http://www.w3.org/2000/svg">
 <!-- Created with Method Draw - http://github.com/duopixel/Method-Draw/ -->

 <g>
  <title>background</title>
  <rect x="-1" y="-1" width="802" height="602" id="canvas_background" fill="#fff"/>
  <g id="canvasGrid" display="none">
   <rect id="svg_1" width="100%" height="100%" x="0" y="0" stroke-width="0" fill="url(#gridpattern)"/>
  </g>
 </g>
 <g>
  <title>Layer 1</title>
  <line fill="none" stroke="#000" stroke-width="1.5" stroke-opacity="null" fill-opacity="null" x1="299.15688" y1="103.5" x2="299.15688" y2="568" id="svg_7" stroke-linejoin="null" stroke-linecap="null"/>
  <line fill="none" stroke="#000" stroke-width="1.5" stroke-opacity="null" fill-opacity="null" x1="92.5" y1="103.5" x2="92.5" y2="567.67348" id="svg_8" stroke-linejoin="null" stroke-linecap="null"/>
  <g id="svg_16" stroke="null">
   <rect fill="#666666" stroke-width="1.5" stroke-opacity="0" fill-opacity="0.25" x="728.14491" y="429.5" height="33" id="svg_13" width="2.2" stroke="#0f0f00"/>
   <rect fill="#666666" stroke-width="1.5" stroke-opacity="0" fill-opacity="0.25" x="674.34489" y="429.5" width="38.40001" height="33" id="svg_14" stroke="#0f0f00"/>
   <rect fill="#666666" stroke-width="1.5" stroke-opacity="0" fill-opacity="0.25" x="717.14491" y="429.5" width="5.5" height="33" id="svg_15" stroke="#0f0f00"/>
  </g>
  <g id="svg_20">
   <line fill="none" stroke-width="1.5" stroke-opacity="null" fill-opacity="null" x1="526.48413" y1="446" x2="643.5" y2="446" id="svg_17" stroke-linejoin="null" stroke-linecap="null" stroke="#000"/>
   <line fill="none" stroke-width="1.5" stroke-opacity="null" fill-opacity="null" x1="526.50003" y1="439.495" x2="526.50003" y2="452.505" id="svg_18" stroke-linejoin="null" stroke-linecap="null" stroke="#000"/>
   <line fill="none" stroke-width="1.5" stroke-opacity="null" fill-opacity="null" x1="643.50003" y1="439.495" x2="643.50003" y2="452.505" id="svg_19" stroke-linejoin="null" stroke-linecap="null" stroke="#000"/>
  </g>
  <text fill="#000000" stroke="#005fbf" stroke-width="0" fill-opacity="null" x="652.5" y="591.5" id="svg_26" font-size="15" font-family="Helvetica, Arial, sans-serif" text-anchor="start" xml:space="preserve">rightBound</text>
  <text fill="#000000" stroke="#005fbf" stroke-width="0" fill-opacity="null" x="547.5" y="87.5" id="svg_27" font-size="15" font-family="Helvetica, Arial, sans-serif" text-anchor="start" xml:space="preserve">end &lt; start</text>
  <g id="svg_31" stroke="null" transform="rotate(-180, 501.817, 445)">
   <rect fill="#666666" stroke-width="1.5" stroke-opacity="0" fill-opacity="0.25" x="560.11686" y="428.5" height="33" id="svg_28" width="2.2" stroke="#0f0f00"/>
   <rect fill="#666666" stroke-width="1.5" stroke-opacity="0" fill-opacity="0.25" x="441.31685" y="428.5" width="103.4" height="33" id="svg_29" stroke="#0f0f00"/>
   <rect fill="#666666" stroke-width="1.5" stroke-opacity="0" fill-opacity="0.25" x="549.11686" y="428.5" width="5.5" height="33" id="svg_30" stroke="#0f0f00"/>
  </g>
  <g id="svg_43">
   <line fill="none" stroke-width="1.5" fill-opacity="null" x1="528.48413" y1="477" x2="562.5" y2="477" id="svg_40" stroke-linejoin="null" stroke-linecap="null" stroke="#00b200"/>
   <line fill="none" stroke-width="1.5" fill-opacity="null" x1="528.50003" y1="470.495" x2="528.50003" y2="483.505" id="svg_41" stroke-linejoin="null" stroke-linecap="null" stroke="#00b200"/>
   <line fill="none" stroke-width="1.5" fill-opacity="null" x1="562.50003" y1="470.495" x2="562.50003" y2="483.505" id="svg_42" stroke-linejoin="null" stroke-linecap="null" stroke="#00b200"/>
  </g>
  <g id="svg_51" stroke="null">
   <rect fill="#666666" stroke-width="1.5" stroke-opacity="0" fill-opacity="0.25" x="440.31685" y="349.5" height="33" id="svg_48" width="2.2" stroke="#0f0f00" transform="rotate(-180, 441.417, 366)"/>
   <rect fill="#666666" stroke-width="1.5" stroke-opacity="0" fill-opacity="0.25" x="457.91687" y="349.5" width="38.40001" height="33" id="svg_49" transform="rotate(-180, 477.117, 366)" stroke="#0f0f00"/>
   <rect fill="#666666" stroke-width="1.5" stroke-opacity="0" fill-opacity="0.25" x="448.01687" y="349.5" width="5.5" height="33" id="svg_50" stroke="#0f0f00" transform="rotate(-180, 450.767, 366)"/>
  </g>
  <g id="svg_55" stroke="null">
   <rect fill="#666666" stroke-width="1.5" stroke-opacity="0" fill-opacity="0.25" x="728.14491" y="350.5" height="33" id="svg_52" width="2.2" stroke="#0f0f00"/>
   <rect fill="#666666" stroke-width="1.5" stroke-opacity="0" fill-opacity="0.25" x="609.3449" y="350.5" width="103.4" height="33" id="svg_53" stroke="#0f0f00"/>
   <rect fill="#666666" stroke-width="1.5" stroke-opacity="0" fill-opacity="0.25" x="717.14491" y="350.5" width="5.5" height="33" id="svg_54" stroke="#0f0f00"/>
  </g>
  <g id="svg_59">
   <line fill="none" stroke-width="1.5" stroke-opacity="null" fill-opacity="null" x1="526.48413" y1="367" x2="643.5" y2="367" id="svg_56" stroke-linejoin="null" stroke-linecap="null" stroke="#000"/>
   <line fill="none" stroke-width="1.5" stroke-opacity="null" fill-opacity="null" x1="526.50003" y1="360.495" x2="526.50003" y2="373.505" id="svg_57" stroke-linejoin="null" stroke-linecap="null" stroke="#000"/>
   <line fill="none" stroke-width="1.5" stroke-opacity="null" fill-opacity="null" x1="643.50003" y1="360.495" x2="643.50003" y2="373.505" id="svg_58" stroke-linejoin="null" stroke-linecap="null" stroke="#000"/>
  </g>
  <g id="svg_63">
   <line fill="none" stroke-width="1.5" fill-opacity="null" x1="609.48413" y1="398" x2="643.5" y2="398" id="svg_60" stroke-linejoin="null" stroke-linecap="null" stroke="#00b200"/>
   <line fill="none" stroke-width="1.5" fill-opacity="null" x1="609.50003" y1="391.495" x2="609.50003" y2="404.505" id="svg_61" stroke-linejoin="null" stroke-linecap="null" stroke="#00b200"/>
   <line fill="none" stroke-width="1.5" fill-opacity="null" x1="643.50003" y1="391.495" x2="643.50003" y2="404.505" id="svg_62" stroke-linejoin="null" stroke-linecap="null" stroke="#00b200"/>
  </g>
  <g id="svg_73">
   <g id="svg_35" stroke="null">
    <rect fill="#666666" stroke-width="1.5" stroke-opacity="0" fill-opacity="0.25" x="728.14491" y="110.5" height="33" id="svg_32" width="2.2" stroke="#0f0f00"/>
    <rect fill="#666666" stroke-width="1.5" stroke-opacity="0" fill-opacity="0.25" x="674.3449" y="110.5" width="38.4" height="33" id="svg_33" stroke="#0f0f00"/>
    <rect fill="#666666" stroke-width="1.5" stroke-opacity="0" fill-opacity="0.25" x="717.14491" y="110.5" width="5.5" height="33" id="svg_34" stroke="#0f0f00"/>
   </g>
   <g id="svg_39">
    <line fill="none" stroke-width="1.5" stroke-opacity="null" fill-opacity="null" x1="526.48413" y1="127" x2="643.5" y2="127" id="svg_36" stroke-linejoin="null" stroke-linecap="null" stroke="#000"/>
    <line fill="none" stroke-width="1.5" stroke-opacity="null" fill-opacity="null" x1="526.50003" y1="120.495" x2="526.50003" y2="133.505" id="svg_37" stroke-linejoin="null" stroke-linecap="null" stroke="#000"/>
    <line fill="none" stroke-width="1.5" stroke-opacity="null" fill-opacity="null" x1="643.50003" y1="120.495" x2="643.50003" y2="133.505" id="svg_38" stroke-linejoin="null" stroke-linecap="null" stroke="#000"/>
   </g>
   <g id="svg_47" stroke="null">
    <line fill="none" stroke-width="1.5" fill-opacity="null" x1="526.48413" y1="155" x2="643.49992" y2="155" id="svg_44" stroke-linejoin="null" stroke-linecap="null" stroke="#e5e5e5"/>
    <line fill="none" stroke-width="1.5" fill-opacity="null" x1="526.53883" y1="148.495" x2="526.53883" y2="161.505" id="svg_45" stroke-linejoin="null" stroke-linecap="null" stroke="#e5e5e5"/>
    <line fill="none" stroke-width="1.5" fill-opacity="null" x1="643.50003" y1="148.495" x2="643.50003" y2="161.505" id="svg_46" stroke-linejoin="null" stroke-linecap="null" stroke="#e5e5e5"/>
   </g>
   <g id="svg_68" stroke="null">
    <rect fill="#666666" stroke-width="1.5" stroke-opacity="0" fill-opacity="0.25" x="441.31683" y="111.5" height="33" id="svg_65" width="2.2" stroke="#0f0f00" transform="rotate(-180, 442.417, 128)"/>
    <rect fill="#666666" stroke-width="1.5" stroke-opacity="0" fill-opacity="0.25" x="458.91685" y="111.5" width="36.40001" height="33" id="svg_66" transform="rotate(-180, 477.117, 128)" stroke="#0f0f00"/>
    <rect fill="#666666" stroke-width="1.5" stroke-opacity="0" fill-opacity="0.25" x="449.01686" y="111.5" width="5.5" height="33" id="svg_67" stroke="#0f0f00" transform="rotate(-180, 451.767, 128)"/>
   </g>
  </g>
  <g id="svg_94">
   <g id="svg_77" stroke="null">
    <rect fill="#666666" stroke-width="1.5" stroke-opacity="0" fill-opacity="0.25" x="728.14491" y="190.5" height="33" id="svg_74" width="2.2" stroke="#0f0f00"/>
    <rect fill="#666666" stroke-width="1.5" stroke-opacity="0" fill-opacity="0.25" x="513.34488" y="190.5" width="199.40001" height="33" id="svg_75" stroke="#0f0f00"/>
    <rect fill="#666666" stroke-width="1.5" stroke-opacity="0" fill-opacity="0.25" x="717.14491" y="190.5" width="5.5" height="33" id="svg_76" stroke="#0f0f00"/>
   </g>
   <g id="svg_81">
    <line fill="none" stroke-width="1.5" stroke-opacity="null" fill-opacity="null" x1="526.48413" y1="207" x2="643.5" y2="207" id="svg_78" stroke-linejoin="null" stroke-linecap="null" stroke="#000"/>
    <line fill="none" stroke-width="1.5" stroke-opacity="null" fill-opacity="null" x1="526.50003" y1="200.495" x2="526.50003" y2="213.505" id="svg_79" stroke-linejoin="null" stroke-linecap="null" stroke="#000"/>
    <line fill="none" stroke-width="1.5" stroke-opacity="null" fill-opacity="null" x1="643.50003" y1="200.495" x2="643.50003" y2="213.505" id="svg_80" stroke-linejoin="null" stroke-linecap="null" stroke="#000"/>
   </g>
   <g id="svg_85" stroke="null">
    <line fill="none" stroke-width="1.5" fill-opacity="null" x1="526.48412" y1="235" x2="643.49992" y2="235" id="svg_82" stroke-linejoin="null" stroke-linecap="null" stroke="#00b200"/>
    <line fill="none" stroke-width="1.5" fill-opacity="null" x1="526.53882" y1="228.495" x2="526.53882" y2="241.505" id="svg_83" stroke-linejoin="null" stroke-linecap="null" stroke="#00b200"/>
    <line fill="none" stroke-width="1.5" fill-opacity="null" x1="643.50003" y1="228.495" x2="643.50003" y2="241.505" id="svg_84" stroke-linejoin="null" stroke-linecap="null" stroke="#00b200"/>
   </g>
   <g id="svg_89" stroke="null">
    <rect fill="#666666" stroke-width="1.5" stroke-opacity="0" fill-opacity="0.25" x="441.31683" y="190.5" height="33" id="svg_86" width="2.2" stroke="#0f0f00" transform="rotate(-180, 442.417, 207)"/>
    <rect fill="#666666" stroke-width="1.5" stroke-opacity="0" fill-opacity="0.25" x="458.91687" y="190.5" width="37.4" height="33" id="svg_87" transform="rotate(-180, 477.617, 207)" stroke="#0f0f00"/>
    <rect fill="#666666" stroke-width="1.5" stroke-opacity="0" fill-opacity="0.25" x="449.01686" y="190.5" width="5.5" height="33" id="svg_88" stroke="#0f0f00" transform="rotate(-180, 451.767, 207)"/>
   </g>
  </g>
  <g id="svg_111">
   <g id="svg_98" stroke="null">
    <rect fill="#666666" stroke-width="1.5" stroke-opacity="0" fill-opacity="0.25" x="728.14491" y="270.5" height="33" id="svg_95" width="2.2" stroke="#0f0f00"/>
    <rect fill="#666666" stroke-width="1.5" stroke-opacity="0" fill-opacity="0.25" x="674.34489" y="270.5" width="38.40001" height="33" id="svg_96" stroke="#0f0f00"/>
    <rect fill="#666666" stroke-width="1.5" stroke-opacity="0" fill-opacity="0.25" x="717.14491" y="270.5" width="5.5" height="33" id="svg_97" stroke="#0f0f00"/>
   </g>
   <g id="svg_102">
    <line fill="none" stroke-width="1.5" stroke-opacity="null" fill-opacity="null" x1="526.48413" y1="287" x2="643.5" y2="287" id="svg_99" stroke-linejoin="null" stroke-linecap="null" stroke="#000"/>
    <line fill="none" stroke-width="1.5" stroke-opacity="null" fill-opacity="null" x1="526.50003" y1="280.495" x2="526.50003" y2="293.505" id="svg_100" stroke-linejoin="null" stroke-linecap="null" stroke="#000"/>
    <line fill="none" stroke-width="1.5" stroke-opacity="null" fill-opacity="null" x1="643.50003" y1="280.495" x2="643.50003" y2="293.505" id="svg_101" stroke-linejoin="null" stroke-linecap="null" stroke="#000"/>
   </g>
   <g id="svg_106" stroke="null">
    <line fill="none" stroke-width="1.5" fill-opacity="null" x1="526.48412" y1="315" x2="643.49992" y2="315" id="svg_103" stroke-linejoin="null" stroke-linecap="null" stroke="#00b200"/>
    <line fill="none" stroke-width="1.5" fill-opacity="null" x1="526.53882" y1="308.495" x2="526.53882" y2="321.505" id="svg_104" stroke-linejoin="null" stroke-linecap="null" stroke="#00b200"/>
    <line fill="none" stroke-width="1.5" fill-opacity="null" x1="643.50003" y1="308.495" x2="643.50003" y2="321.505" id="svg_105" stroke-linejoin="null" stroke-linecap="null" stroke="#00b200"/>
   </g>
   <g id="svg_110" stroke="null">
    <rect fill="#666666" stroke-width="1.5" stroke-opacity="0" fill-opacity="0.25" x="441.31683" y="270.5" height="33" id="svg_107" width="2.2" stroke="#0f0f00" transform="rotate(-180, 442.417, 287)"/>
    <rect fill="#666666" stroke-width="1.5" stroke-opacity="0" fill-opacity="0.25" x="458.91686" y="270.5" width="198.40001" height="33" id="svg_108" transform="rotate(-180, 558.117, 287)" stroke="#0f0f00"/>
    <rect fill="#666666" stroke-width="1.5" stroke-opacity="0" fill-opacity="0.25" x="449.01686" y="270.5" width="5.5" height="33" id="svg_109" stroke="#0f0f00" transform="rotate(-180, 451.767, 287)"/>
   </g>
  </g>
  <g id="svg_132">
   <g id="svg_115" stroke="null">
    <rect fill="#666666" stroke-width="1.5" stroke-opacity="0" fill-opacity="0.25" x="102.0327" y="190.5" width="25.40001" height="33" id="svg_113" stroke="#0f0f00"/>
   </g>
   <g id="svg_119">
    <line fill="none" stroke-width="1.5" stroke-opacity="null" fill-opacity="null" x1="136.48413" y1="207" x2="253.5" y2="207" id="svg_116" stroke-linejoin="null" stroke-linecap="null" stroke="#000"/>
    <line fill="none" stroke-width="1.5" stroke-opacity="null" fill-opacity="null" x1="136.50003" y1="200.495" x2="136.50003" y2="213.505" id="svg_117" stroke-linejoin="null" stroke-linecap="null" stroke="#000"/>
    <line fill="none" stroke-width="1.5" stroke-opacity="null" fill-opacity="null" x1="253.50003" y1="200.495" x2="253.50003" y2="213.505" id="svg_118" stroke-linejoin="null" stroke-linecap="null" stroke="#000"/>
   </g>
   <g id="svg_131" stroke="null">
    <line fill="none" stroke-width="1.5" fill-opacity="null" x1="137.48413" y1="237" x2="253.49992" y2="237" id="svg_128" stroke-linejoin="null" stroke-linecap="null" stroke="#e5e5e5"/>
    <line fill="none" stroke-width="1.5" fill-opacity="null" x1="137.53836" y1="230.495" x2="137.53836" y2="243.505" id="svg_129" stroke-linejoin="null" stroke-linecap="null" stroke="#e5e5e5"/>
    <line fill="none" stroke-width="1.5" fill-opacity="null" x1="253.50003" y1="230.495" x2="253.50003" y2="243.505" id="svg_130" stroke-linejoin="null" stroke-linecap="null" stroke="#e5e5e5"/>
   </g>
  </g>
  <line fill="none" stroke="#000" stroke-width="1.5" stroke-opacity="null" fill-opacity="null" x1="689.15688" y1="103.5" x2="689.15688" y2="568" id="svg_133" stroke-linejoin="null" stroke-linecap="null"/>
  <line fill="none" stroke="#000" stroke-width="1.5" stroke-opacity="null" fill-opacity="null" x1="482.5" y1="103.5" x2="482.5" y2="568" id="svg_134" stroke-linejoin="null" stroke-linecap="null"/>
  <g id="svg_155">
   <g id="svg_138" stroke="null">
    <rect fill="#666666" stroke-width="1.5" stroke-opacity="0" fill-opacity="0.25" x="728.14491" y="510.5" height="33" id="svg_135" width="2.2" stroke="#0f0f00"/>
    <rect fill="#666666" stroke-width="1.5" stroke-opacity="0" fill-opacity="0.25" x="609.3449" y="510.5" width="103.4" height="33" id="svg_136" stroke="#0f0f00"/>
    <rect fill="#666666" stroke-width="1.5" stroke-opacity="0" fill-opacity="0.25" x="717.14491" y="510.5" width="5.5" height="33" id="svg_137" stroke="#0f0f00"/>
   </g>
   <g id="svg_142">
    <line fill="none" stroke-width="1.5" stroke-opacity="null" fill-opacity="null" x1="526.48413" y1="527" x2="643.5" y2="527" id="svg_139" stroke-linejoin="null" stroke-linecap="null" stroke="#000"/>
    <line fill="none" stroke-width="1.5" stroke-opacity="null" fill-opacity="null" x1="526.50003" y1="520.495" x2="526.50003" y2="533.505" id="svg_140" stroke-linejoin="null" stroke-linecap="null" stroke="#000"/>
    <line fill="none" stroke-width="1.5" stroke-opacity="null" fill-opacity="null" x1="643.50003" y1="520.495" x2="643.50003" y2="533.505" id="svg_141" stroke-linejoin="null" stroke-linecap="null" stroke="#000"/>
   </g>
   <g id="svg_146">
    <line fill="none" stroke-width="1.5" fill-opacity="null" x1="609.48413" y1="558" x2="643.5" y2="558" id="svg_143" stroke-linejoin="null" stroke-linecap="null" stroke="#00b200"/>
    <line fill="none" stroke-width="1.5" fill-opacity="null" x1="609.50003" y1="551.495" x2="609.50003" y2="564.505" id="svg_144" stroke-linejoin="null" stroke-linecap="null" stroke="#00b200"/>
    <line fill="none" stroke-width="1.5" fill-opacity="null" x1="643.50003" y1="551.495" x2="643.50003" y2="564.505" id="svg_145" stroke-linejoin="null" stroke-linecap="null" stroke="#00b200"/>
   </g>
   <g id="svg_150" stroke="null" transform="rotate(-180, 501.817, 526)">
    <rect fill="#666666" stroke-width="1.5" stroke-opacity="0" fill-opacity="0.25" x="560.11686" y="509.5" height="33" id="svg_147" width="2.2" stroke="#0f0f00"/>
    <rect fill="#666666" stroke-width="1.5" stroke-opacity="0" fill-opacity="0.25" x="441.31685" y="509.5" width="103.4" height="33" id="svg_148" stroke="#0f0f00"/>
    <rect fill="#666666" stroke-width="1.5" stroke-opacity="0" fill-opacity="0.25" x="549.11686" y="509.5" width="5.5" height="33" id="svg_149" stroke="#0f0f00"/>
   </g>
   <g id="svg_154">
    <line fill="none" stroke-width="1.5" fill-opacity="null" x1="527.48413" y1="558" x2="561.5" y2="558" id="svg_151" stroke-linejoin="null" stroke-linecap="null" stroke="#00b200"/>
    <line fill="none" stroke-width="1.5" fill-opacity="null" x1="527.50003" y1="551.495" x2="527.50003" y2="564.505" id="svg_152" stroke-linejoin="null" stroke-linecap="null" stroke="#00b200"/>
    <line fill="none" stroke-width="1.5" fill-opacity="null" x1="561.50003" y1="551.495" x2="561.50003" y2="564.505" id="svg_153" stroke-linejoin="null" stroke-linecap="null" stroke="#00b200"/>
   </g>
  </g>
  <text fill="#000000" stroke="#005fbf" stroke-width="0" fill-opacity="null" x="157.5" y="87.5" id="svg_156" font-size="15" font-family="Helvetica, Arial, sans-serif" text-anchor="start" xml:space="preserve">start ≤ end</text>
  <text fill="#000000" stroke="#005fbf" stroke-width="0" fill-opacity="null" x="450.5" y="590.5" id="svg_157" font-size="15" font-family="Helvetica, Arial, sans-serif" text-anchor="start" xml:space="preserve">leftBound</text>
  <text fill="#000000" stroke="#005fbf" stroke-width="0" fill-opacity="null" x="262.5" y="591.5" id="svg_158" font-size="15" font-family="Helvetica, Arial, sans-serif" text-anchor="start" xml:space="preserve">rightBound</text>
  <text fill="#000000" stroke="#005fbf" stroke-width="0" fill-opacity="null" x="60.5" y="590.5" id="svg_159" font-size="15" font-family="Helvetica, Arial, sans-serif" text-anchor="start" xml:space="preserve">leftBound</text>
  <g id="svg_176">
   <g id="svg_165">
    <line fill="none" stroke-width="1.5" stroke-opacity="null" fill-opacity="null" x1="136.48413" y1="367" x2="253.5" y2="367" id="svg_162" stroke-linejoin="null" stroke-linecap="null" stroke="#000"/>
    <line fill="none" stroke-width="1.5" stroke-opacity="null" fill-opacity="null" x1="136.50003" y1="360.495" x2="136.50003" y2="373.505" id="svg_163" stroke-linejoin="null" stroke-linecap="null" stroke="#000"/>
    <line fill="none" stroke-width="1.5" stroke-opacity="null" fill-opacity="null" x1="253.50003" y1="360.495" x2="253.50003" y2="373.505" id="svg_164" stroke-linejoin="null" stroke-linecap="null" stroke="#000"/>
   </g>
   <g id="svg_171" stroke="null">
    <rect fill="#666666" stroke-width="1.5" stroke-opacity="0" fill-opacity="0.25" x="125.91687" y="63.5" width="46.4" height="33" id="svg_170" transform="matrix(-1.06466, 0, 0, -1, 354.375, 446)" stroke="#0f0f00"/>
   </g>
   <g id="svg_175" stroke="null">
    <line fill="none" stroke-width="1.5" fill-opacity="null" x1="171.48413" y1="398" x2="219.49999" y2="398" id="svg_172" stroke-linejoin="null" stroke-linecap="null" stroke="#00b200"/>
    <line fill="none" stroke-width="1.5" fill-opacity="null" x1="171.50658" y1="391.495" x2="171.50658" y2="404.505" id="svg_173" stroke-linejoin="null" stroke-linecap="null" stroke="#00b200"/>
    <line fill="none" stroke-width="1.5" fill-opacity="null" x1="219.50003" y1="391.495" x2="219.50003" y2="404.505" id="svg_174" stroke-linejoin="null" stroke-linecap="null" stroke="#00b200"/>
   </g>
  </g>
  <g id="svg_187">
   <g id="svg_178" stroke="null">
    <rect fill="#666666" stroke-width="1.5" stroke-opacity="0" fill-opacity="0.25" x="262.34489" y="110.5" width="25.40001" height="33" id="svg_177" stroke="#0f0f00"/>
   </g>
   <g id="svg_182">
    <line fill="none" stroke-width="1.5" stroke-opacity="null" fill-opacity="null" x1="136.48413" y1="127" x2="253.5" y2="127" id="svg_179" stroke-linejoin="null" stroke-linecap="null" stroke="#000"/>
    <line fill="none" stroke-width="1.5" stroke-opacity="null" fill-opacity="null" x1="136.50003" y1="120.495" x2="136.50003" y2="133.505" id="svg_180" stroke-linejoin="null" stroke-linecap="null" stroke="#000"/>
    <line fill="none" stroke-width="1.5" stroke-opacity="null" fill-opacity="null" x1="253.50003" y1="120.495" x2="253.50003" y2="133.505" id="svg_181" stroke-linejoin="null" stroke-linecap="null" stroke="#000"/>
   </g>
   <g id="svg_186" stroke="null">
    <line fill="none" stroke-width="1.5" fill-opacity="null" x1="137.48413" y1="156" x2="253.49992" y2="156" id="svg_183" stroke-linejoin="null" stroke-linecap="null" stroke="#e5e5e5"/>
    <line fill="none" stroke-width="1.5" fill-opacity="null" x1="137.53836" y1="149.495" x2="137.53836" y2="162.505" id="svg_184" stroke-linejoin="null" stroke-linecap="null" stroke="#e5e5e5"/>
    <line fill="none" stroke-width="1.5" fill-opacity="null" x1="253.50003" y1="149.495" x2="253.50003" y2="162.505" id="svg_185" stroke-linejoin="null" stroke-linecap="null" stroke="#e5e5e5"/>
   </g>
  </g>
  <g id="svg_204">
   <g id="svg_193">
    <line fill="none" stroke-width="1.5" stroke-opacity="null" fill-opacity="null" x1="136.48413" y1="447" x2="253.5" y2="447" id="svg_190" stroke-linejoin="null" stroke-linecap="null" stroke="#000"/>
    <line fill="none" stroke-width="1.5" stroke-opacity="null" fill-opacity="null" x1="136.50003" y1="440.495" x2="136.50003" y2="453.505" id="svg_191" stroke-linejoin="null" stroke-linecap="null" stroke="#000"/>
    <line fill="none" stroke-width="1.5" stroke-opacity="null" fill-opacity="null" x1="253.50003" y1="440.495" x2="253.50003" y2="453.505" id="svg_192" stroke-linejoin="null" stroke-linecap="null" stroke="#000"/>
   </g>
   <g id="svg_199" stroke="null">
    <rect fill="#666666" stroke-width="1.5" stroke-opacity="0" fill-opacity="0.25" x="125.91687" y="429.5" width="46.4" height="33" id="svg_198" transform="rotate(-180, 149.117, 446)" stroke="#0f0f00"/>
   </g>
   <g id="svg_203">
    <line fill="none" stroke-width="1.5" fill-opacity="null" x1="137.48413" y1="478" x2="171.5" y2="478" id="svg_200" stroke-linejoin="null" stroke-linecap="null" stroke="#00b200"/>
    <line fill="none" stroke-width="1.5" fill-opacity="null" x1="137.50003" y1="471.495" x2="137.50003" y2="484.505" id="svg_201" stroke-linejoin="null" stroke-linecap="null" stroke="#00b200"/>
    <line fill="none" stroke-width="1.5" fill-opacity="null" x1="171.50003" y1="471.495" x2="171.50003" y2="484.505" id="svg_202" stroke-linejoin="null" stroke-linecap="null" stroke="#00b200"/>
   </g>
  </g>
  <g id="svg_215">
   <g id="svg_208">
    <line fill="none" stroke-width="1.5" stroke-opacity="null" fill-opacity="null" x1="136.48413" y1="287" x2="253.5" y2="287" id="svg_205" stroke-linejoin="null" stroke-linecap="null" stroke="#000"/>
    <line fill="none" stroke-width="1.5" stroke-opacity="null" fill-opacity="null" x1="136.50003" y1="280.495" x2="136.50003" y2="293.505" id="svg_206" stroke-linejoin="null" stroke-linecap="null" stroke="#000"/>
    <line fill="none" stroke-width="1.5" stroke-opacity="null" fill-opacity="null" x1="253.50003" y1="280.495" x2="253.50003" y2="293.505" id="svg_207" stroke-linejoin="null" stroke-linecap="null" stroke="#000"/>
   </g>
   <g id="svg_210" stroke="null">
    <rect fill="#666666" stroke-width="1.5" stroke-opacity="0" fill-opacity="0.25" x="125.91687" y="143.5" width="46.4" height="33" id="svg_209" transform="matrix(-3.04741, 0, 0, -1, 651.038, 446)" stroke="#0f0f00"/>
   </g>
   <g id="svg_214" stroke="null">
    <line fill="none" stroke-width="1.5" fill-opacity="null" x1="137.48413" y1="317" x2="253.49993" y2="317" id="svg_211" stroke-linejoin="null" stroke-linecap="null" stroke="#00b200"/>
    <line fill="none" stroke-width="1.5" fill-opacity="null" x1="137.53836" y1="310.495" x2="137.53836" y2="323.505" id="svg_212" stroke-linejoin="null" stroke-linecap="null" stroke="#00b200"/>
    <line fill="none" stroke-width="1.5" fill-opacity="null" x1="253.50003" y1="310.495" x2="253.50003" y2="323.505" id="svg_213" stroke-linejoin="null" stroke-linecap="null" stroke="#00b200"/>
   </g>
  </g>
  <g id="svg_232">
   <g id="svg_217" stroke="null">
    <rect fill="#666666" stroke-width="1.5" stroke-opacity="0" fill-opacity="0.25" x="219.3449" y="510.5" width="46.40001" height="33" id="svg_216" stroke="#0f0f00"/>
   </g>
   <g id="svg_221">
    <line fill="none" stroke-width="1.5" stroke-opacity="null" fill-opacity="null" x1="136.48413" y1="527" x2="253.5" y2="527" id="svg_218" stroke-linejoin="null" stroke-linecap="null" stroke="#000"/>
    <line fill="none" stroke-width="1.5" stroke-opacity="null" fill-opacity="null" x1="136.50003" y1="520.495" x2="136.50003" y2="533.505" id="svg_219" stroke-linejoin="null" stroke-linecap="null" stroke="#000"/>
    <line fill="none" stroke-width="1.5" stroke-opacity="null" fill-opacity="null" x1="253.50003" y1="520.495" x2="253.50003" y2="533.505" id="svg_220" stroke-linejoin="null" stroke-linecap="null" stroke="#000"/>
   </g>
   <g id="svg_225">
    <line fill="none" stroke-width="1.5" fill-opacity="null" x1="219.48413" y1="559" x2="253.5" y2="559" id="svg_222" stroke-linejoin="null" stroke-linecap="null" stroke="#00b200"/>
    <line fill="none" stroke-width="1.5" fill-opacity="null" x1="219.50003" y1="552.495" x2="219.50003" y2="565.505" id="svg_223" stroke-linejoin="null" stroke-linecap="null" stroke="#00b200"/>
    <line fill="none" stroke-width="1.5" fill-opacity="null" x1="253.50003" y1="552.495" x2="253.50003" y2="565.505" id="svg_224" stroke-linejoin="null" stroke-linecap="null" stroke="#00b200"/>
   </g>
  </g>
  <text fill="#000000" stroke="#005fbf" stroke-width="0" fill-opacity="null" x="16.5" y="22.5" id="svg_233" font-size="15" font-family="'Courier New', Courier, monospace" text-anchor="start" xml:space="preserve">var iset = new CircularIntervalSet( leftBound, rightBound );</text>
  <path transform="rotate(-180, 265.75, 127.5)" fill="#666666" stroke="#005fbf" stroke-width="1.5" fill-opacity="0" d="m263.49999,106.13354l4.5,-0.13354l0,43l-4.45263,0" id="svg_237"/>
  <path fill="#666666" stroke="#ff7f00" stroke-width="1.5" fill-opacity="0" d="m283.49999,106.13354l4.5,-0.13354l0,43l-4.45263,0" id="svg_2"/>
  <path transform="rotate(-180, 155.75, 81.5)" fill="#666666" stroke="#005fbf" stroke-width="1.5" fill-opacity="0" d="m153.49999,60.13354l4.5,-0.13354l0,43l-4.45263,0" id="svg_3"/>
  <path fill="#666666" stroke="#ff7f00" stroke-width="1.5" fill-opacity="0" d="m228.49999,60.13354l4.5,-0.13354l0,43l-4.45263,0" id="svg_4"/>
  <path transform="rotate(-180, 104.75, 207.5)" fill="#666666" stroke="#005fbf" stroke-width="1.5" fill-opacity="0" d="m102.49999,186.13354l4.5,-0.13354l0,43l-4.45263,0" id="svg_5"/>
  <path fill="#666666" stroke="#ff7f00" stroke-width="1.5" fill-opacity="0" d="m122.49999,186.13354l4.5,-0.13354l0,43l-4.45263,0" id="svg_6"/>
  <path transform="rotate(-180, 127.75, 287.5)" fill="#666666" stroke="#005fbf" stroke-width="1.5" fill-opacity="0" d="m125.49999,266.13354l4.5,-0.13354l0,43l-4.45263,0" id="svg_9"/>
  <path fill="#666666" stroke="#ff7f00" stroke-width="1.5" fill-opacity="0" d="m263.49999,266.13354l4.5,-0.13354l0,43l-4.45263,0" id="svg_10"/>
  <path transform="rotate(-180, 173.75, 365.5)" fill="#666666" stroke="#005fbf" stroke-width="1.5" fill-opacity="0" d="m171.49999,344.13354l4.5,-0.13354l0,43l-4.45263,0" id="svg_11"/>
  <path fill="#666666" stroke="#ff7f00" stroke-width="1.5" fill-opacity="0" d="m214.49999,344.13354l4.5,-0.13354l0,43l-4.45263,0" id="svg_12"/>
  <path transform="rotate(-180, 126.75, 445.5)" fill="#666666" stroke="#005fbf" stroke-width="1.5" fill-opacity="0" d="m124.49999,424.13354l4.5,-0.13354l0,43l-4.45263,0" id="svg_21"/>
  <path fill="#666666" stroke="#ff7f00" stroke-width="1.5" fill-opacity="0" d="m166.49999,424.13354l4.5,-0.13354l0,43l-4.45263,0" id="svg_22"/>
  <path transform="rotate(-180, 221.75, 526.5)" fill="#666666" stroke="#005fbf" stroke-width="1.5" fill-opacity="0" d="m219.49999,505.13354l4.5,-0.13354l0,43l-4.45263,0" id="svg_23"/>
  <path fill="#666666" stroke="#ff7f00" stroke-width="1.5" fill-opacity="0" d="m261.49999,505.13354l4.5,-0.13354l0,43l-4.45263,0" id="svg_24"/>
  <path transform="rotate(-180, 675.75, 127.5)" fill="#666666" stroke="#005fbf" stroke-width="1.5" fill-opacity="0" d="m673.49999,106.13354l4.5,-0.13354l0,43l-4.45263,0" id="svg_25"/>
  <path fill="#666666" stroke="#ff7f00" stroke-width="1.5" fill-opacity="0" d="m490.49999,106.13354l4.5,-0.13354l0,43l-4.45263,0" id="svg_64"/>
  <path transform="rotate(-180, 515.75, 206.5)" fill="#666666" stroke="#005fbf" stroke-width="1.5" fill-opacity="0" d="m513.49999,185.13354l4.5,-0.13354l0,43l-4.45263,0" id="svg_69"/>
  <path fill="#666666" stroke="#ff7f00" stroke-width="1.5" fill-opacity="0" d="m490.49999,185.13354l4.5,-0.13354l0,43l-4.45263,0" id="svg_70"/>
  <path transform="rotate(-180, 675.75, 287.5)" fill="#666666" stroke="#005fbf" stroke-width="1.5" fill-opacity="0" d="m673.49999,266.13354l4.5,-0.13354l0,43l-4.45263,0" id="svg_71"/>
  <path fill="#666666" stroke="#ff7f00" stroke-width="1.5" fill-opacity="0" d="m651.49999,266.13354l4.5,-0.13354l0,43l-4.45263,0" id="svg_72"/>
  <path transform="rotate(-180, 626.75, 81.5)" fill="#666666" stroke="#005fbf" stroke-width="1.5" fill-opacity="0" d="m624.49999,60.13354l4.5,-0.13354l0,43l-4.45263,0" id="svg_90"/>
  <path fill="#666666" stroke="#ff7f00" stroke-width="1.5" fill-opacity="0" d="m537.49999,60.13354l4.5,-0.13354l0,43l-4.45263,0" id="svg_91"/>
  <path transform="rotate(-180, 611.75, 366.5)" fill="#666666" stroke="#005fbf" stroke-width="1.5" fill-opacity="0" d="m609.49999,345.13354l4.5,-0.13354l0,43l-4.45263,0" id="svg_92"/>
  <path fill="#666666" stroke="#ff7f00" stroke-width="1.5" fill-opacity="0" d="m490.49999,345.13354l4.5,-0.13354l0,43l-4.45263,0" id="svg_93"/>
  <path transform="rotate(-180, 675.75, 445.5)" fill="#666666" stroke="#005fbf" stroke-width="1.5" fill-opacity="0" d="m673.49999,424.13354l4.5,-0.13354l0,43l-4.45263,0" id="svg_112"/>
  <path fill="#666666" stroke="#ff7f00" stroke-width="1.5" fill-opacity="0" d="m557.49999,424.13354l4.5,-0.13354l0,43l-4.45263,0" id="svg_114"/>
  <path transform="rotate(-180, 611.75, 525.5)" fill="#666666" stroke="#005fbf" stroke-width="1.5" fill-opacity="0" d="m609.49999,504.13354l4.5,-0.13354l0,43l-4.45263,0" id="svg_120"/>
  <path fill="#666666" stroke="#ff7f00" stroke-width="1.5" fill-opacity="0" d="m556.49999,504.13354l4.5,-0.13354l0,43l-4.45263,0" id="svg_121"/>
  <text style="cursor: move;" xml:space="preserve" text-anchor="start" font-family="'Courier New', Courier, monospace" font-size="15" id="svg_122" y="46.5" x="17" stroke-width="0" stroke="#005fbf" fill="#000000">iset.intersect( start, end );</text>
 </g>
</svg>